<svg width="800" height="400" viewBox="0 0 800 400" fill="none" xmlns="http://www.w3.org/2000/svg">
<rect width="800" height="400" fill="white"/>
<path d="M313.905 343.102C302.751 325.014 288.035 347.185 288.035 347.185C288.035 347.185 273.315 325.014 262.162 343.102C251.006 361.186 288.035 396 288.035 396C288.035 396 325.061 361.186 313.905 343.102Z" fill="#F77D48"/>
<path d="M287.957 370.39C287.944 370.39 287.933 370.39 287.923 370.39C287.713 370.367 287.545 370.166 287.521 369.903L286.428 357.707L284.357 369.956C284.311 370.21 284.133 370.39 283.928 370.39H280.054C279.889 370.39 279.737 370.273 279.666 370.086L278.642 367.516L277.493 370.11C277.416 370.283 277.269 370.39 277.113 370.39H274.788C274.602 370.39 274.437 370.243 274.376 370.026L271.959 361.426L268.991 370.06C268.922 370.26 268.765 370.39 268.589 370.39H257.436C257.194 370.39 257 370.146 257 369.843C257 369.539 257.194 369.295 257.436 369.295H268.302L271.597 359.707C271.669 359.5 271.839 359.373 272.015 359.376C272.193 359.383 272.352 359.527 272.411 359.74L275.097 369.295H276.855L278.28 366.077C278.357 365.896 278.517 365.783 278.671 365.793C278.833 365.796 278.979 365.913 279.051 366.097L280.325 369.295H283.575L286.136 354.168C286.178 353.905 286.364 353.718 286.582 353.734C286.798 353.748 286.971 353.955 286.995 354.222L288.136 366.951L289.239 361.917C289.292 361.673 289.465 361.51 289.675 361.516C289.877 361.523 290.048 361.707 290.088 361.954L291.258 369.295H295.85L299.47 355.474C299.534 355.233 299.72 355.076 299.916 355.1C300.116 355.116 300.281 355.3 300.315 355.547L302.265 369.295H303.64L305.533 364.354C305.613 364.147 305.783 364.024 305.969 364.047C306.153 364.067 306.304 364.231 306.349 364.454L307.349 369.295H313.673C313.915 369.295 314.109 369.539 314.109 369.843C314.109 370.146 313.915 370.39 313.673 370.39H307.012C306.812 370.39 306.639 370.223 306.589 369.979L305.804 366.177L304.307 370.08C304.235 370.27 304.081 370.39 303.913 370.39H301.9C301.688 370.39 301.507 370.2 301.47 369.939L299.76 357.881L296.582 370.013C296.523 370.24 296.356 370.39 296.167 370.39H290.899C290.691 370.39 290.513 370.206 290.47 369.949L289.593 364.438L288.378 369.989C288.324 370.226 288.152 370.39 287.957 370.39" fill="white"/>
<path d="M294.896 118.261C294.896 118.261 311.072 149.188 305.13 151.843C299.19 154.498 289.591 116.081 289.591 116.081C289.591 116.081 254.624 110.704 243.011 115.511C243.011 115.511 271.689 141.784 265.28 142.896C258.868 144.005 227.755 118.05 227.755 118.05C227.755 118.05 194.723 121.788 195.351 141.846C195.98 161.907 206.91 168.7 211.895 168.446C216.88 168.192 246.486 158.749 246.89 162.844C247.294 166.939 229.104 179.233 216.851 179.171C216.851 179.171 238.497 205.899 254.238 199.416C269.981 192.929 271.941 181.363 281.741 177.534C291.544 173.703 299.7 174.17 295.507 178.402C291.311 182.633 273.774 185.992 267.767 195.354C261.76 204.716 256.493 210.962 272.487 209.462C288.484 207.963 314.918 197.798 316.792 184.569C316.873 183.994 316.952 183.443 317.027 182.916C316.991 183.973 316.792 184.569 316.792 184.569C320.062 185.343 326.582 191.801 331.279 196.847C331.997 197.731 333.076 198.927 334.621 200.527C335.275 201.265 335.803 201.872 336.169 202.293C345.521 213.955 349.698 237.739 349.698 237.739L353.177 237.624C353.263 212.343 334.976 197.168 334.976 197.168C322.281 184.586 318.668 171.343 318.668 171.343C318.668 171.343 342.677 146.308 322.461 128.421C322.461 128.421 307.535 118.204 294.896 118.261" fill="#FF7F69"/>
<path d="M450.539 48.7475C450.539 48.7475 434.362 79.6766 440.302 82.3315C446.245 84.9841 455.844 46.567 455.844 46.567C455.844 46.567 490.808 41.1925 502.422 45.9967C502.422 45.9967 473.743 72.2726 480.155 73.382C486.567 74.4914 517.678 48.5366 517.678 48.5366C517.678 48.5366 550.711 52.277 550.083 72.3349C549.453 92.3929 538.524 99.1859 533.538 98.9319C528.554 98.6779 498.947 89.2348 498.545 93.3298C498.14 97.4247 516.329 109.719 528.583 109.657C528.583 109.657 506.936 136.388 491.194 129.902C475.453 123.418 473.493 111.852 463.691 108.02C453.891 104.189 445.732 104.656 449.928 108.888C454.123 113.119 471.66 116.479 477.667 125.84C483.672 135.204 488.941 141.449 472.945 139.949C456.951 138.449 430.517 128.284 428.64 115.058C428.559 114.48 428.482 113.929 428.408 113.402C428.442 114.459 428.64 115.058 428.64 115.058C425.37 115.832 418.852 122.287 414.154 127.333C413.435 128.217 412.359 129.415 410.813 131.014C410.159 131.752 409.632 132.358 409.265 132.78C399.911 144.441 395.735 168.228 395.735 168.228L392.255 168.11C392.172 142.829 410.459 127.657 410.459 127.657C423.153 115.072 426.767 101.829 426.767 101.829C426.767 101.829 402.758 76.7941 422.974 58.9094C422.974 58.9094 437.899 48.6924 450.539 48.7475" fill="#FF7F69"/>
<path d="M328.511 126.24C328.511 126.24 324.411 78.0135 288.079 67.4034C288.079 67.4034 280.994 65.4482 277.414 73.0391C273.836 80.63 288.175 82.8105 296.571 87.32C304.969 91.8271 323.64 108.437 328.511 126.24Z" fill="#FF7F69"/>
<path d="M328.945 121.29C328.945 121.29 303.652 92.1799 284.169 95.8819C264.686 99.5839 270.482 108.919 276.348 108.052C282.211 107.184 293.626 103.24 304.26 108.191C314.894 113.141 328.945 121.29 328.945 121.29Z" fill="#FF7F69"/>
<path d="M490.388 93.8089V97.8224H313.526V93.8089C313.526 87.0638 320.865 81.6006 329.92 81.6006H473.997C483.052 81.6006 490.388 87.0638 490.388 93.8089Z" fill="#1D2A30"/>
<path d="M490.388 97.8226V373.288C490.388 382.52 483.052 390.001 473.997 390.001H329.92C320.865 390.001 313.526 382.52 313.526 373.288V97.8226H490.388Z" fill="#FFA076"/>
<path d="M329.92 83.6569C322.013 83.6569 315.582 90.0857 315.582 97.9929V373.609C315.582 381.514 322.013 387.945 329.92 387.945H473.997C481.901 387.945 488.333 381.514 488.333 373.609V97.9929C488.333 90.0857 481.901 83.6569 473.997 83.6569H329.92ZM473.997 392.059H329.92C319.744 392.059 311.468 383.783 311.468 373.609V97.9929C311.468 87.819 319.744 79.5403 329.92 79.5403H473.997C484.171 79.5403 492.449 87.819 492.449 97.9929V373.609C492.449 383.783 484.171 392.059 473.997 392.059" fill="#1D2A30"/>
<path d="M479.658 388.99H327.064C319.916 388.99 314.122 383.196 314.122 376.051V367.817H490.702V377.944C490.702 384.044 485.756 388.99 479.658 388.99" fill="#1D2A30"/>
<path d="M354.338 113.117H330.303C329.517 113.117 328.879 112.48 328.879 111.691C328.879 110.905 329.517 110.268 330.303 110.268H354.338C355.124 110.268 355.762 110.905 355.762 111.691C355.762 112.48 355.124 113.117 354.338 113.117Z" fill="#1D2A30"/>
<path d="M354.338 119.041H330.303C329.517 119.041 328.879 118.401 328.879 117.615C328.879 116.829 329.517 116.191 330.303 116.191H354.338C355.124 116.191 355.762 116.829 355.762 117.615C355.762 118.401 355.124 119.041 354.338 119.041Z" fill="#1D2A30"/>
<path d="M354.338 124.707H330.303C329.517 124.707 328.879 124.07 328.879 123.284C328.879 122.498 329.517 121.861 330.303 121.861H354.338C355.124 121.861 355.762 122.498 355.762 123.284C355.762 124.07 355.124 124.707 354.338 124.707Z" fill="#1D2A30"/>
<path d="M558.173 296.09C555.607 298.596 551.826 301.117 557.272 307.466C564.254 315.606 573.889 349.557 573.889 349.557C573.427 350.807 573.733 352.597 572.799 353.067C571.289 353.827 567.688 351.059 567.688 351.059C567.688 351.059 535.601 313.97 533.275 305.897C531.557 299.935 543.518 272.167 550.563 257.661C553.057 252.521 554.936 249.049 555.369 248.793C555.436 248.754 555.501 248.716 555.568 248.682C559.361 246.559 562.793 247.043 565.776 248.994C566.413 249.411 567.029 249.892 567.626 250.434C574.895 257.023 578.986 271.934 578.312 274.951C577.845 277.05 573.887 281.334 569.574 285.53C568.678 286.402 567.767 287.27 566.868 288.111C562.951 291.791 559.275 295.014 558.173 296.09" fill="#1D2A30"/>
<path d="M569.574 285.53C568.678 286.402 567.767 287.27 566.868 288.111L550.563 257.661C553.057 252.521 554.936 249.049 555.369 248.793C555.436 248.755 555.501 248.716 555.568 248.683L565.776 248.994L567.621 249.052L567.626 250.434L569.574 285.53" fill="#0C1215"/>
<path d="M565.033 182.459C565.033 182.459 568.334 191.981 567.043 197.47C565.751 202.96 551.125 229.856 546.084 234.32C541.045 238.784 510.439 216.951 510.439 216.951L513.722 214.14C513.722 214.14 538.452 221.894 539.888 219.965C541.325 218.034 549.858 179.035 565.033 182.459" fill="#FFB27D"/>
<path d="M560.293 255.421C560.293 255.421 565.023 288.305 580.188 312.087C594.843 335.07 601.243 369.414 601.243 369.414C601.243 369.414 602.251 370.293 604.372 369.526C606.492 368.76 607.825 369.903 608.297 368.918C608.297 368.918 608.22 315.252 600.629 303.089C596.34 296.217 595.188 271.786 595.705 265.183C596.225 258.581 593.774 250.317 593.774 250.317L560.293 255.421" fill="#1D2A30"/>
<path d="M607.556 378.617L603.718 378.404C602.443 378.128 601.516 377.704 600.205 377.457C598.219 377.084 597.251 377.853 597.057 378.03C597.03 378.054 597.018 378.066 597.018 378.066L580.715 377.156C580.339 376.547 580.808 375.212 581.249 374.235C581.546 373.571 582.143 373.089 582.855 372.926C584.611 372.521 588.045 372.267 591.323 369.615C593.168 368.127 600.128 364.255 600.128 364.255L600.164 364.248C600.313 364.26 601.003 364.516 603.917 367.269C605.424 368.688 608.299 365.625 608.299 365.625C608.299 365.625 608.781 366.071 609.114 366.874C609.385 367.504 609.56 368.362 609.325 369.394C608.999 370.851 609.631 373.624 610.156 375.505C610.472 376.645 610.748 377.457 610.748 377.457C610.748 377.457 610.88 378.39 607.556 378.617Z" fill="#233862"/>
<path d="M609.114 366.873C608.162 367.468 606.157 368.63 604.865 368.726C603.121 368.855 600.128 364.254 600.128 364.254L600.164 364.247C600.313 364.259 601.003 364.516 603.916 367.269C605.424 368.687 608.299 365.625 608.299 365.625C608.299 365.625 608.781 366.071 609.114 366.873Z" fill="#233862"/>
<path d="M607.556 378.617L603.718 378.404C602.443 378.128 601.516 377.704 600.205 377.457C598.219 377.084 597.251 377.853 597.057 378.03C597.03 378.054 597.018 378.066 597.018 378.066L580.715 377.155C580.339 376.547 580.808 375.212 581.249 374.234C581.769 373.822 581.776 376.183 582.03 376.573C582.282 376.964 595.322 377.453 596.105 376.949C596.889 376.444 599.199 375.612 602.302 376.54C605.004 377.347 609.131 375.895 610.156 375.504C610.472 376.645 610.748 377.457 610.748 377.457C610.748 377.457 610.88 378.39 607.556 378.617" fill="#233862"/>
<path d="M595.887 229.916C596.896 211.679 594.996 185.176 590.544 182.904C586.763 180.975 578.444 178.057 569.722 177.714C562.838 177.443 548.003 179.856 545.89 191.142C544.555 198.282 543.848 204.189 543.848 204.189C543.848 204.189 545.176 208.866 549.455 210.337C549.884 212.398 550.023 214.425 550.577 216.165C556.759 235.573 552.172 254.404 552.172 254.404C558.515 260.294 591.764 258.863 595.214 256.872C600.835 253.63 594.879 248.153 595.887 229.916" fill="#FF6044"/>
<path d="M581.132 354.529L578.232 357.052C577.128 357.744 576.167 358.087 575.057 358.825C573.371 359.941 573.215 361.168 573.201 361.432C573.198 361.468 573.198 361.485 573.198 361.485L560.882 372.205C560.187 372.03 559.591 370.748 559.226 369.739C558.977 369.056 559.066 368.294 559.464 367.681C560.439 366.167 562.722 363.588 563.221 359.402C563.506 357.049 565.792 349.418 565.792 349.418L565.813 349.389C565.926 349.293 566.599 348.994 570.608 348.934C572.678 348.903 572.601 344.702 572.601 344.702C572.601 344.702 573.258 344.685 574.056 345.026C574.691 345.292 575.415 345.783 575.966 346.686C576.749 347.956 579.136 349.504 580.823 350.486C581.846 351.081 582.61 351.471 582.61 351.471C582.61 351.471 583.355 352.046 581.132 354.529" fill="#233862"/>
<path d="M574.056 345.026C573.788 346.116 573.165 348.349 572.305 349.317C571.145 350.628 565.792 349.418 565.792 349.418L565.814 349.389C565.926 349.293 566.599 348.994 570.608 348.934C572.678 348.903 572.602 344.703 572.602 344.703C572.602 344.703 573.258 344.686 574.056 345.026" fill="#233862"/>
<path d="M581.132 354.529L578.232 357.052C577.128 357.744 576.167 358.087 575.058 358.825C573.371 359.941 573.215 361.168 573.201 361.432C573.198 361.468 573.198 361.485 573.198 361.485L560.882 372.205C560.187 372.03 559.591 370.748 559.227 369.739C559.31 369.08 560.964 370.767 561.417 370.87C561.869 370.973 571.555 362.227 571.763 361.322C571.971 360.413 573.047 358.204 575.918 356.704C578.417 355.398 580.363 351.478 580.823 350.486C581.846 351.081 582.61 351.471 582.61 351.471C582.61 351.471 583.355 352.046 581.132 354.529" fill="#233862"/>
<path d="M580.933 184.792C580.933 184.792 591.002 185.233 595.629 188.456C600.253 191.679 619.866 215.192 622.156 221.522C624.449 227.853 599.309 244.175 599.309 244.175L596.197 238.564C596.197 238.564 607.792 224.038 606.529 221.99C605.264 219.943 572.156 197.635 580.933 184.792" fill="#FFB27D"/>
<path d="M597.512 237.799L601.358 241.111C601.358 241.111 597.411 248.543 595.442 249.154L595.24 249.183C593.146 249.485 588.184 245.841 587.513 242.318C587.46 241.956 587.496 241.621 587.616 241.317C588.526 239.258 593.415 238.329 595.964 237.976C596.894 237.849 597.512 237.799 597.512 237.799" fill="#FFB27D"/>
<path d="M516.45 214.967L514.186 219.51C514.186 219.51 506.011 217.509 504.935 215.753L504.858 215.563C504.051 213.608 506.365 207.9 509.614 206.384C509.952 206.245 510.285 206.197 510.609 206.238C512.827 206.614 514.931 211.126 515.897 213.51C516.249 214.38 516.45 214.967 516.45 214.967Z" fill="#FFB27D"/>
<path d="M577.449 178.641C577.449 178.641 586.758 179.571 593.23 184.095C596.211 186.179 607.448 198.057 607.448 198.057C607.448 198.057 605.493 209.716 591.205 212.127C576.66 214.581 575.664 190.44 575.664 190.44L577.449 178.641" fill="#FF6044"/>
<path d="M574.883 178.672C575.297 179.353 575.261 180.216 574.801 180.867C573.44 182.784 569.745 186.029 560.643 184.9C557.523 184.514 556.936 182.106 559.049 179.782C559.564 179.216 559.586 175.797 559.61 174.427C559.6 171.259 559.816 169.488 559.816 169.488L566.532 165.41L572.906 161.502C571.351 171.374 573.692 176.705 574.883 178.672" fill="#FFB27D"/>
<path d="M572.408 166.476C572.408 166.476 567.503 173.307 559.61 174.426C559.601 171.259 559.816 169.488 559.816 169.488L566.533 165.41L572.408 166.476" fill="#ED985F"/>
<path d="M557.046 168.94C557.046 168.94 571.905 173.258 574.459 164.112C577.011 154.963 580.651 149.361 571.27 146.217C561.891 143.074 559.066 146.054 557.458 148.901C555.853 151.748 553.246 167.579 557.046 168.94Z" fill="#FFB27D"/>
<path d="M582.196 146.411C582.354 146.27 582.687 146.181 583.396 146.227C583.396 146.227 582.877 145.807 582.122 145.697C582.095 144.696 581.784 142.894 580.143 142.266C580.143 142.266 580.993 142.86 580.986 143.919C579.27 141.672 575.252 139.697 563.523 139.206C548.066 138.557 551.924 148.97 553.764 150.382C555.604 151.79 560.983 149.191 564.64 149.933C568.296 150.674 568.351 156.096 569.516 156.98C570.68 157.865 570.345 156.511 572.132 155.95C573.92 155.389 573.74 158.217 573.031 159.985C572.319 161.751 574.356 164.442 574.356 164.442C574.356 164.442 574.356 164.442 577.018 162.194C579.678 159.944 583.2 149.476 582.407 147.058C582.337 146.845 582.268 146.627 582.196 146.411" fill="#2C3A64"/>
<path d="M556.071 163.014C556.071 163.014 556.407 164.408 557.921 164.67C559.438 164.931 560.495 163.898 560.495 163.898C560.495 163.898 558.058 162.597 556.071 163.014" fill="white"/>
<path d="M526.076 271.858L523.872 274.328C522.798 275.529 520.939 275.634 519.739 274.563L505.494 261.845C504.293 260.771 504.188 258.912 505.261 257.711L507.468 255.241C508.539 254.04 510.398 253.935 511.601 255.006L525.844 267.725C527.044 268.796 527.15 270.657 526.076 271.858Z" fill="#FF593C"/>
<path d="M466.214 249.494L478.516 247.412L504.217 253.014L466.214 249.494Z" fill="#FC492A"/>
<path d="M425.434 125.541V123.639L429.943 117.667C430.176 117.363 430.356 117.049 430.485 116.728C430.614 116.405 430.677 116.1 430.677 115.813V115.794C430.677 115.353 430.545 115.008 430.279 114.763C430.013 114.519 429.634 114.397 429.145 114.397C428.678 114.397 428.3 114.543 428.005 114.835C427.713 115.128 427.538 115.547 427.478 116.091V116.1H425.271V116.091C425.398 114.9 425.801 113.98 426.481 113.326C427.164 112.669 428.046 112.343 429.126 112.343C430.322 112.343 431.249 112.643 431.906 113.239C432.562 113.836 432.893 114.679 432.893 115.767V115.777C432.893 116.302 432.792 116.838 432.591 117.382C432.392 117.926 432.114 118.429 431.762 118.897L428.266 123.488H432.963V125.541H425.434" fill="white"/>
<path d="M438.926 123.648C439.518 123.648 439.942 123.473 440.203 123.123C440.462 122.773 440.594 122.294 440.594 121.685V116.359C440.594 115.743 440.462 115.261 440.203 114.916C439.942 114.569 439.518 114.396 438.926 114.396C438.335 114.396 437.908 114.569 437.649 114.916C437.388 115.261 437.259 115.743 437.259 116.359V121.685C437.259 122.294 437.388 122.773 437.649 123.123C437.908 123.473 438.335 123.648 438.926 123.648ZM438.926 125.701C437.659 125.701 436.708 125.368 436.07 124.707C435.433 124.043 435.117 123.14 435.117 121.999V116.045C435.117 114.892 435.438 113.987 436.08 113.328C436.722 112.671 437.671 112.343 438.926 112.343C440.187 112.343 441.138 112.669 441.778 113.325C442.417 113.98 442.736 114.885 442.736 116.045V121.999C442.736 123.152 442.415 124.058 441.773 124.714C441.131 125.373 440.182 125.701 438.926 125.701Z" fill="white"/>
<path d="M444.977 125.541V123.353H447.165V125.541H444.977ZM444.977 118.422V116.234H447.165V118.422H444.977Z" fill="white"/>
<path d="M452.734 112.504V125.541H450.546V115.032L448.869 115.993V113.563L450.546 112.504H452.734Z" fill="white"/>
<path d="M459.241 125.701C458.225 125.701 457.381 125.39 456.708 124.764C456.037 124.139 455.637 123.257 455.512 122.114V122.107H457.655V122.114C457.71 122.594 457.875 122.965 458.158 123.231C458.438 123.497 458.805 123.631 459.26 123.631C459.768 123.631 460.161 123.463 460.439 123.128C460.717 122.792 460.856 122.318 460.856 121.702V120.581C460.856 119.972 460.722 119.5 460.456 119.165C460.19 118.832 459.816 118.664 459.332 118.664C458.996 118.664 458.692 118.753 458.421 118.932C458.151 119.112 457.935 119.364 457.782 119.685H455.8V112.503H462.622V114.557H457.942V117.176C458.151 116.989 458.405 116.848 458.704 116.745C459.004 116.644 459.306 116.591 459.61 116.591C460.686 116.591 461.52 116.941 462.111 117.636C462.703 118.333 462.998 119.316 462.998 120.581V121.702C462.998 122.975 462.672 123.959 462.016 124.657C461.361 125.354 460.437 125.701 459.241 125.701" fill="white"/>
<path d="M706.497 394H55.7828C55.3522 394 55 393.648 55 393.219V392.843C55 392.411 55.3522 392.059 55.7828 392.059H706.497C706.926 392.059 707.278 392.411 707.278 392.843V393.219C707.278 393.648 706.926 394 706.497 394Z" fill="#233862"/>
<path d="M459 164H332V142H459V164Z" fill="#FEAB87" fill-opacity="0.68"/>
<path d="M459 188H332V166H459V188Z" fill="#FEAB87" fill-opacity="0.68"/>
<path d="M459 212H332V190H459V212Z" fill="#FEAB87" fill-opacity="0.68"/>
<path d="M459 236H332V214H459V236Z" fill="#FEAB87" fill-opacity="0.68"/>
<path d="M459 260H332V238H459V260Z" fill="#FEAB87" fill-opacity="0.68"/>
<path d="M459 284H332V262H459V284Z" fill="#FEAB87" fill-opacity="0.68"/>
<path d="M459 308H332V286H459V308Z" fill="#FEAB87" fill-opacity="0.68"/>
<path d="M459 333H332V311H459V333Z" fill="#FEAB87" fill-opacity="0.68"/>
<path d="M459 358H332V336H459V358Z" fill="#FEAB87" fill-opacity="0.68"/>
<path d="M345 158C347.761 158 350 155.761 350 153C350 150.239 347.761 148 345 148C342.239 148 340 150.239 340 153C340 155.761 342.239 158 345 158Z" fill="#1D2A30"/>
<path d="M345 182C347.761 182 350 179.761 350 177C350 174.239 347.761 172 345 172C342.239 172 340 174.239 340 177C340 179.761 342.239 182 345 182Z" fill="#1D2A30"/>
<path d="M345 206C347.761 206 350 203.761 350 201C350 198.239 347.761 196 345 196C342.239 196 340 198.239 340 201C340 203.761 342.239 206 345 206Z" fill="#1D2A30"/>
<path d="M345 230C347.761 230 350 227.761 350 225C350 222.239 347.761 220 345 220C342.239 220 340 222.239 340 225C340 227.761 342.239 230 345 230Z" fill="#1D2A30"/>
<path d="M345 254C347.761 254 350 251.761 350 249C350 246.239 347.761 244 345 244C342.239 244 340 246.239 340 249C340 251.761 342.239 254 345 254Z" fill="#1D2A30"/>
<path d="M345 278C347.761 278 350 275.761 350 273C350 270.239 347.761 268 345 268C342.239 268 340 270.239 340 273C340 275.761 342.239 278 345 278Z" fill="#1D2A30"/>
<path d="M345 302C347.761 302 350 299.761 350 297C350 294.239 347.761 292 345 292C342.239 292 340 294.239 340 297C340 299.761 342.239 302 345 302Z" fill="#1D2A30"/>
<path d="M345 327C347.761 327 350 324.761 350 322C350 319.239 347.761 317 345 317C342.239 317 340 319.239 340 322C340 324.761 342.239 327 345 327Z" fill="#1D2A30"/>
<path d="M345 352C347.761 352 350 349.761 350 347C350 344.239 347.761 342 345 342C342.239 342 340 344.239 340 347C340 349.761 342.239 352 345 352Z" fill="#1D2A30"/>
<path d="M343.568 155.417L342 153.402L342.912 152.693L343.654 153.647L346.161 151L347 151.794L343.568 155.417Z" fill="white"/>
<path d="M343.568 179.417L342 177.402L342.912 176.693L343.654 177.647L346.161 175L347 175.794L343.568 179.417Z" fill="white"/>
<path d="M343.568 203.417L342 201.402L342.912 200.693L343.654 201.647L346.161 199L347 199.794L343.568 203.417Z" fill="white"/>
<path d="M343.568 227.417L342 225.402L342.912 224.693L343.654 225.647L346.161 223L347 223.794L343.568 227.417Z" fill="white"/>
<path d="M343.568 251.417L342 249.402L342.912 248.693L343.654 249.647L346.161 247L347 247.794L343.568 251.417Z" fill="white"/>
<path d="M343.568 275.417L342 273.402L342.912 272.693L343.654 273.647L346.161 271L347 271.794L343.568 275.417Z" fill="white"/>
<path d="M343.568 299.417L342 297.402L342.912 296.693L343.654 297.647L346.161 295L347 295.794L343.568 299.417Z" fill="white"/>
<path d="M343.568 324.417L342 322.402L342.912 321.693L343.654 322.647L346.161 320L347 320.794L343.568 324.417Z" fill="white"/>
<path d="M343.568 349.417L342 347.402L342.912 346.693L343.654 347.647L346.161 345L347 345.794L343.568 349.417Z" fill="white"/>
<path d="M357.414 155.387H360.109V156H356.66V150.312H357.414V155.387ZM360.66 153.848C360.66 153.434 360.741 153.061 360.902 152.73C361.066 152.4 361.293 152.145 361.582 151.965C361.874 151.785 362.206 151.695 362.578 151.695C363.154 151.695 363.618 151.895 363.973 152.293C364.329 152.691 364.508 153.221 364.508 153.883V153.934C364.508 154.345 364.428 154.715 364.27 155.043C364.113 155.368 363.888 155.622 363.594 155.805C363.302 155.987 362.966 156.078 362.586 156.078C362.013 156.078 361.548 155.879 361.191 155.48C360.837 155.082 360.66 154.555 360.66 153.898V153.848ZM361.387 153.934C361.387 154.402 361.495 154.779 361.711 155.062C361.93 155.346 362.221 155.488 362.586 155.488C362.953 155.488 363.245 155.345 363.461 155.059C363.677 154.77 363.785 154.366 363.785 153.848C363.785 153.384 363.674 153.009 363.453 152.723C363.234 152.434 362.943 152.289 362.578 152.289C362.221 152.289 361.934 152.431 361.715 152.715C361.496 152.999 361.387 153.405 361.387 153.934ZM365.242 153.852C365.242 153.193 365.395 152.669 365.699 152.281C366.004 151.891 366.408 151.695 366.91 151.695C367.426 151.695 367.828 151.878 368.117 152.242L368.152 151.773H368.812V155.898C368.812 156.445 368.65 156.876 368.324 157.191C368.001 157.507 367.566 157.664 367.02 157.664C366.715 157.664 366.417 157.599 366.125 157.469C365.833 157.339 365.611 157.16 365.457 156.934L365.832 156.5C366.142 156.883 366.521 157.074 366.969 157.074C367.32 157.074 367.594 156.975 367.789 156.777C367.987 156.579 368.086 156.301 368.086 155.941V155.578C367.797 155.911 367.402 156.078 366.902 156.078C366.408 156.078 366.007 155.879 365.699 155.48C365.395 155.082 365.242 154.539 365.242 153.852ZM365.969 153.934C365.969 154.41 366.066 154.785 366.262 155.059C366.457 155.329 366.73 155.465 367.082 155.465C367.538 155.465 367.872 155.258 368.086 154.844V152.914C367.865 152.51 367.533 152.309 367.09 152.309C366.738 152.309 366.464 152.445 366.266 152.719C366.068 152.992 365.969 153.397 365.969 153.934ZM370.691 156H369.969V151.773H370.691V156ZM369.91 150.652C369.91 150.535 369.945 150.436 370.016 150.355C370.089 150.275 370.195 150.234 370.336 150.234C370.477 150.234 370.583 150.275 370.656 150.355C370.729 150.436 370.766 150.535 370.766 150.652C370.766 150.77 370.729 150.867 370.656 150.945C370.583 151.023 370.477 151.062 370.336 151.062C370.195 151.062 370.089 151.023 370.016 150.945C369.945 150.867 369.91 150.77 369.91 150.652ZM372.535 151.773L372.559 152.305C372.882 151.898 373.303 151.695 373.824 151.695C374.717 151.695 375.168 152.199 375.176 153.207V156H374.453V153.203C374.451 152.898 374.38 152.673 374.242 152.527C374.107 152.382 373.895 152.309 373.605 152.309C373.371 152.309 373.165 152.371 372.988 152.496C372.811 152.621 372.673 152.785 372.574 152.988V156H371.852V151.773H372.535Z" fill="white"/>
<path d="M358.336 177.465C357.693 177.28 357.224 177.053 356.93 176.785C356.638 176.514 356.492 176.181 356.492 175.785C356.492 175.337 356.671 174.967 357.027 174.676C357.387 174.382 357.853 174.234 358.426 174.234C358.816 174.234 359.164 174.31 359.469 174.461C359.776 174.612 360.013 174.82 360.18 175.086C360.349 175.352 360.434 175.642 360.434 175.957H359.68C359.68 175.613 359.57 175.344 359.352 175.148C359.133 174.951 358.824 174.852 358.426 174.852C358.056 174.852 357.767 174.934 357.559 175.098C357.353 175.259 357.25 175.484 357.25 175.773C357.25 176.005 357.348 176.202 357.543 176.363C357.741 176.522 358.076 176.668 358.547 176.801C359.021 176.934 359.391 177.081 359.656 177.242C359.924 177.401 360.122 177.587 360.25 177.801C360.38 178.014 360.445 178.266 360.445 178.555C360.445 179.016 360.266 179.385 359.906 179.664C359.547 179.94 359.066 180.078 358.465 180.078C358.074 180.078 357.71 180.004 357.371 179.855C357.033 179.704 356.771 179.499 356.586 179.238C356.404 178.978 356.312 178.682 356.312 178.352H357.066C357.066 178.695 357.193 178.967 357.445 179.168C357.701 179.366 358.04 179.465 358.465 179.465C358.861 179.465 359.164 179.384 359.375 179.223C359.586 179.061 359.691 178.841 359.691 178.562C359.691 178.284 359.594 178.069 359.398 177.918C359.203 177.764 358.849 177.613 358.336 177.465ZM361.105 177.848C361.105 177.434 361.186 177.061 361.348 176.73C361.512 176.4 361.738 176.145 362.027 175.965C362.319 175.785 362.651 175.695 363.023 175.695C363.599 175.695 364.064 175.895 364.418 176.293C364.775 176.691 364.953 177.221 364.953 177.883V177.934C364.953 178.345 364.874 178.715 364.715 179.043C364.559 179.368 364.333 179.622 364.039 179.805C363.747 179.987 363.411 180.078 363.031 180.078C362.458 180.078 361.993 179.879 361.637 179.48C361.283 179.082 361.105 178.555 361.105 177.898V177.848ZM361.832 177.934C361.832 178.402 361.94 178.779 362.156 179.062C362.375 179.346 362.667 179.488 363.031 179.488C363.398 179.488 363.69 179.345 363.906 179.059C364.122 178.77 364.23 178.366 364.23 177.848C364.23 177.384 364.12 177.009 363.898 176.723C363.68 176.434 363.388 176.289 363.023 176.289C362.667 176.289 362.379 176.431 362.16 176.715C361.941 176.999 361.832 177.405 361.832 177.934ZM367.555 179.488C367.812 179.488 368.038 179.41 368.23 179.254C368.423 179.098 368.53 178.902 368.551 178.668H369.234C369.221 178.91 369.138 179.141 368.984 179.359C368.831 179.578 368.625 179.753 368.367 179.883C368.112 180.013 367.841 180.078 367.555 180.078C366.979 180.078 366.521 179.887 366.18 179.504C365.841 179.118 365.672 178.592 365.672 177.926V177.805C365.672 177.393 365.747 177.027 365.898 176.707C366.049 176.387 366.266 176.138 366.547 175.961C366.831 175.784 367.165 175.695 367.551 175.695C368.025 175.695 368.418 175.837 368.73 176.121C369.046 176.405 369.214 176.773 369.234 177.227H368.551C368.53 176.953 368.426 176.729 368.238 176.555C368.053 176.378 367.824 176.289 367.551 176.289C367.184 176.289 366.898 176.422 366.695 176.688C366.495 176.951 366.395 177.332 366.395 177.832V177.969C366.395 178.456 366.495 178.831 366.695 179.094C366.896 179.357 367.182 179.488 367.555 179.488ZM370.832 180H370.109V175.773H370.832V180ZM370.051 174.652C370.051 174.535 370.086 174.436 370.156 174.355C370.229 174.275 370.336 174.234 370.477 174.234C370.617 174.234 370.724 174.275 370.797 174.355C370.87 174.436 370.906 174.535 370.906 174.652C370.906 174.77 370.87 174.867 370.797 174.945C370.724 175.023 370.617 175.062 370.477 175.062C370.336 175.062 370.229 175.023 370.156 174.945C370.086 174.867 370.051 174.77 370.051 174.652ZM374.602 180C374.56 179.917 374.526 179.768 374.5 179.555C374.164 179.904 373.763 180.078 373.297 180.078C372.88 180.078 372.538 179.961 372.27 179.727C372.004 179.49 371.871 179.19 371.871 178.828C371.871 178.388 372.038 178.047 372.371 177.805C372.707 177.56 373.178 177.438 373.785 177.438H374.488V177.105C374.488 176.853 374.413 176.652 374.262 176.504C374.111 176.353 373.888 176.277 373.594 176.277C373.336 176.277 373.12 176.342 372.945 176.473C372.771 176.603 372.684 176.76 372.684 176.945H371.957C371.957 176.734 372.031 176.531 372.18 176.336C372.331 176.138 372.534 175.982 372.789 175.867C373.047 175.753 373.329 175.695 373.637 175.695C374.124 175.695 374.505 175.818 374.781 176.062C375.057 176.305 375.201 176.639 375.211 177.066V179.012C375.211 179.4 375.26 179.708 375.359 179.938V180H374.602ZM373.402 179.449C373.629 179.449 373.844 179.391 374.047 179.273C374.25 179.156 374.397 179.004 374.488 178.816V177.949H373.922C373.036 177.949 372.594 178.208 372.594 178.727C372.594 178.953 372.669 179.13 372.82 179.258C372.971 179.385 373.165 179.449 373.402 179.449ZM377.129 180H376.406V174H377.129V180ZM381.191 180H380.441V174.312H381.191V180ZM383.137 175.773L383.16 176.305C383.483 175.898 383.905 175.695 384.426 175.695C385.319 175.695 385.77 176.199 385.777 177.207V180H385.055V177.203C385.052 176.898 384.982 176.673 384.844 176.527C384.708 176.382 384.496 176.309 384.207 176.309C383.973 176.309 383.767 176.371 383.59 176.496C383.413 176.621 383.275 176.785 383.176 176.988V180H382.453V175.773H383.137ZM387.848 174.75V175.773H388.637V176.332H387.848V178.953C387.848 179.122 387.883 179.25 387.953 179.336C388.023 179.419 388.143 179.461 388.312 179.461C388.396 179.461 388.51 179.445 388.656 179.414V180C388.466 180.052 388.281 180.078 388.102 180.078C387.779 180.078 387.535 179.98 387.371 179.785C387.207 179.59 387.125 179.312 387.125 178.953V176.332H386.355V175.773H387.125V174.75H387.848ZM391.238 180.078C390.665 180.078 390.199 179.891 389.84 179.516C389.48 179.138 389.301 178.634 389.301 178.004V177.871C389.301 177.452 389.38 177.078 389.539 176.75C389.701 176.419 389.924 176.161 390.211 175.977C390.5 175.789 390.812 175.695 391.148 175.695C391.698 175.695 392.125 175.876 392.43 176.238C392.734 176.6 392.887 177.118 392.887 177.793V178.094H390.023C390.034 178.51 390.155 178.848 390.387 179.105C390.621 179.361 390.918 179.488 391.277 179.488C391.533 179.488 391.749 179.436 391.926 179.332C392.103 179.228 392.258 179.09 392.391 178.918L392.832 179.262C392.478 179.806 391.947 180.078 391.238 180.078ZM391.148 176.289C390.857 176.289 390.612 176.396 390.414 176.609C390.216 176.82 390.094 177.117 390.047 177.5H392.164V177.445C392.143 177.078 392.044 176.794 391.867 176.594C391.69 176.391 391.451 176.289 391.148 176.289ZM393.555 177.852C393.555 177.193 393.707 176.669 394.012 176.281C394.316 175.891 394.72 175.695 395.223 175.695C395.738 175.695 396.141 175.878 396.43 176.242L396.465 175.773H397.125V179.898C397.125 180.445 396.962 180.876 396.637 181.191C396.314 181.507 395.879 181.664 395.332 181.664C395.027 181.664 394.729 181.599 394.438 181.469C394.146 181.339 393.923 181.16 393.77 180.934L394.145 180.5C394.454 180.883 394.833 181.074 395.281 181.074C395.633 181.074 395.906 180.975 396.102 180.777C396.299 180.579 396.398 180.301 396.398 179.941V179.578C396.109 179.911 395.715 180.078 395.215 180.078C394.72 180.078 394.319 179.879 394.012 179.48C393.707 179.082 393.555 178.539 393.555 177.852ZM394.281 177.934C394.281 178.41 394.379 178.785 394.574 179.059C394.77 179.329 395.043 179.465 395.395 179.465C395.85 179.465 396.185 179.258 396.398 178.844V176.914C396.177 176.51 395.845 176.309 395.402 176.309C395.051 176.309 394.776 176.445 394.578 176.719C394.38 176.992 394.281 177.397 394.281 177.934ZM400.262 176.422C400.152 176.404 400.034 176.395 399.906 176.395C399.432 176.395 399.111 176.596 398.941 177V180H398.219V175.773H398.922L398.934 176.262C399.171 175.884 399.507 175.695 399.941 175.695C400.082 175.695 400.189 175.714 400.262 175.75V176.422ZM403.383 180C403.341 179.917 403.307 179.768 403.281 179.555C402.945 179.904 402.544 180.078 402.078 180.078C401.661 180.078 401.319 179.961 401.051 179.727C400.785 179.49 400.652 179.19 400.652 178.828C400.652 178.388 400.819 178.047 401.152 177.805C401.488 177.56 401.96 177.438 402.566 177.438H403.27V177.105C403.27 176.853 403.194 176.652 403.043 176.504C402.892 176.353 402.669 176.277 402.375 176.277C402.117 176.277 401.901 176.342 401.727 176.473C401.552 176.603 401.465 176.76 401.465 176.945H400.738C400.738 176.734 400.812 176.531 400.961 176.336C401.112 176.138 401.315 175.982 401.57 175.867C401.828 175.753 402.111 175.695 402.418 175.695C402.905 175.695 403.286 175.818 403.562 176.062C403.839 176.305 403.982 176.639 403.992 177.066V179.012C403.992 179.4 404.042 179.708 404.141 179.938V180H403.383ZM402.184 179.449C402.41 179.449 402.625 179.391 402.828 179.273C403.031 179.156 403.178 179.004 403.27 178.816V177.949H402.703C401.818 177.949 401.375 178.208 401.375 178.727C401.375 178.953 401.451 179.13 401.602 179.258C401.753 179.385 401.947 179.449 402.184 179.449ZM406.105 174.75V175.773H406.895V176.332H406.105V178.953C406.105 179.122 406.141 179.25 406.211 179.336C406.281 179.419 406.401 179.461 406.57 179.461C406.654 179.461 406.768 179.445 406.914 179.414V180C406.724 180.052 406.539 180.078 406.359 180.078C406.036 180.078 405.793 179.98 405.629 179.785C405.465 179.59 405.383 179.312 405.383 178.953V176.332H404.613V175.773H405.383V174.75H406.105ZM408.527 180H407.805V175.773H408.527V180ZM407.746 174.652C407.746 174.535 407.781 174.436 407.852 174.355C407.924 174.275 408.031 174.234 408.172 174.234C408.312 174.234 408.419 174.275 408.492 174.355C408.565 174.436 408.602 174.535 408.602 174.652C408.602 174.77 408.565 174.867 408.492 174.945C408.419 175.023 408.312 175.062 408.172 175.062C408.031 175.062 407.924 175.023 407.852 174.945C407.781 174.867 407.746 174.77 407.746 174.652ZM409.496 177.848C409.496 177.434 409.577 177.061 409.738 176.73C409.902 176.4 410.129 176.145 410.418 175.965C410.71 175.785 411.042 175.695 411.414 175.695C411.99 175.695 412.454 175.895 412.809 176.293C413.165 176.691 413.344 177.221 413.344 177.883V177.934C413.344 178.345 413.264 178.715 413.105 179.043C412.949 179.368 412.724 179.622 412.43 179.805C412.138 179.987 411.802 180.078 411.422 180.078C410.849 180.078 410.384 179.879 410.027 179.48C409.673 179.082 409.496 178.555 409.496 177.898V177.848ZM410.223 177.934C410.223 178.402 410.331 178.779 410.547 179.062C410.766 179.346 411.057 179.488 411.422 179.488C411.789 179.488 412.081 179.345 412.297 179.059C412.513 178.77 412.621 178.366 412.621 177.848C412.621 177.384 412.51 177.009 412.289 176.723C412.07 176.434 411.779 176.289 411.414 176.289C411.057 176.289 410.77 176.431 410.551 176.715C410.332 176.999 410.223 177.405 410.223 177.934ZM414.934 175.773L414.957 176.305C415.28 175.898 415.702 175.695 416.223 175.695C417.116 175.695 417.566 176.199 417.574 177.207V180H416.852V177.203C416.849 176.898 416.779 176.673 416.641 176.527C416.505 176.382 416.293 176.309 416.004 176.309C415.77 176.309 415.564 176.371 415.387 176.496C415.21 176.621 415.072 176.785 414.973 176.988V180H414.25V175.773H414.934Z" fill="white"/>
<path d="M357.41 201.773V204H356.66V198.312H358.758C359.38 198.312 359.867 198.471 360.219 198.789C360.573 199.107 360.75 199.527 360.75 200.051C360.75 200.603 360.577 201.029 360.23 201.328C359.887 201.625 359.393 201.773 358.75 201.773H357.41ZM357.41 201.16H358.758C359.159 201.16 359.466 201.066 359.68 200.879C359.893 200.689 360 200.415 360 200.059C360 199.72 359.893 199.449 359.68 199.246C359.466 199.043 359.173 198.938 358.801 198.93H357.41V201.16ZM363.293 204.078C362.72 204.078 362.254 203.891 361.895 203.516C361.535 203.138 361.355 202.634 361.355 202.004V201.871C361.355 201.452 361.435 201.078 361.594 200.75C361.755 200.419 361.979 200.161 362.266 199.977C362.555 199.789 362.867 199.695 363.203 199.695C363.753 199.695 364.18 199.876 364.484 200.238C364.789 200.6 364.941 201.118 364.941 201.793V202.094H362.078C362.089 202.51 362.21 202.848 362.441 203.105C362.676 203.361 362.973 203.488 363.332 203.488C363.587 203.488 363.803 203.436 363.98 203.332C364.158 203.228 364.312 203.09 364.445 202.918L364.887 203.262C364.533 203.806 364.001 204.078 363.293 204.078ZM363.203 200.289C362.911 200.289 362.667 200.396 362.469 200.609C362.271 200.82 362.148 201.117 362.102 201.5H364.219V201.445C364.198 201.078 364.099 200.794 363.922 200.594C363.745 200.391 363.505 200.289 363.203 200.289ZM367.824 200.422C367.715 200.404 367.596 200.395 367.469 200.395C366.995 200.395 366.673 200.596 366.504 201V204H365.781V199.773H366.484L366.496 200.262C366.733 199.884 367.069 199.695 367.504 199.695C367.645 199.695 367.751 199.714 367.824 199.75V200.422ZM370.953 202.879C370.953 202.684 370.879 202.533 370.73 202.426C370.585 202.316 370.328 202.223 369.961 202.145C369.596 202.066 369.306 201.973 369.09 201.863C368.876 201.754 368.717 201.624 368.613 201.473C368.512 201.322 368.461 201.142 368.461 200.934C368.461 200.587 368.607 200.294 368.898 200.055C369.193 199.815 369.568 199.695 370.023 199.695C370.503 199.695 370.891 199.819 371.188 200.066C371.487 200.314 371.637 200.63 371.637 201.016H370.91C370.91 200.818 370.826 200.647 370.656 200.504C370.49 200.361 370.279 200.289 370.023 200.289C369.76 200.289 369.555 200.346 369.406 200.461C369.258 200.576 369.184 200.725 369.184 200.91C369.184 201.085 369.253 201.216 369.391 201.305C369.529 201.393 369.777 201.478 370.137 201.559C370.499 201.639 370.792 201.736 371.016 201.848C371.24 201.96 371.405 202.095 371.512 202.254C371.621 202.41 371.676 202.602 371.676 202.828C371.676 203.206 371.525 203.509 371.223 203.738C370.921 203.965 370.529 204.078 370.047 204.078C369.708 204.078 369.409 204.018 369.148 203.898C368.888 203.779 368.684 203.612 368.535 203.398C368.389 203.182 368.316 202.949 368.316 202.699H369.039C369.052 202.941 369.148 203.134 369.328 203.277C369.51 203.418 369.75 203.488 370.047 203.488C370.32 203.488 370.539 203.434 370.703 203.324C370.87 203.212 370.953 203.064 370.953 202.879ZM372.426 201.848C372.426 201.434 372.507 201.061 372.668 200.73C372.832 200.4 373.059 200.145 373.348 199.965C373.639 199.785 373.971 199.695 374.344 199.695C374.919 199.695 375.384 199.895 375.738 200.293C376.095 200.691 376.273 201.221 376.273 201.883V201.934C376.273 202.345 376.194 202.715 376.035 203.043C375.879 203.368 375.654 203.622 375.359 203.805C375.068 203.987 374.732 204.078 374.352 204.078C373.779 204.078 373.314 203.879 372.957 203.48C372.603 203.082 372.426 202.555 372.426 201.898V201.848ZM373.152 201.934C373.152 202.402 373.26 202.779 373.477 203.062C373.695 203.346 373.987 203.488 374.352 203.488C374.719 203.488 375.01 203.345 375.227 203.059C375.443 202.77 375.551 202.366 375.551 201.848C375.551 201.384 375.44 201.009 375.219 200.723C375 200.434 374.708 200.289 374.344 200.289C373.987 200.289 373.699 200.431 373.48 200.715C373.262 200.999 373.152 201.405 373.152 201.934ZM377.863 199.773L377.887 200.305C378.21 199.898 378.632 199.695 379.152 199.695C380.046 199.695 380.496 200.199 380.504 201.207V204H379.781V201.203C379.779 200.898 379.708 200.673 379.57 200.527C379.435 200.382 379.223 200.309 378.934 200.309C378.699 200.309 378.493 200.371 378.316 200.496C378.139 200.621 378.001 200.785 377.902 200.988V204H377.18V199.773H377.863ZM384.203 204C384.161 203.917 384.128 203.768 384.102 203.555C383.766 203.904 383.365 204.078 382.898 204.078C382.482 204.078 382.139 203.961 381.871 203.727C381.605 203.49 381.473 203.19 381.473 202.828C381.473 202.388 381.639 202.047 381.973 201.805C382.309 201.56 382.78 201.438 383.387 201.438H384.09V201.105C384.09 200.853 384.014 200.652 383.863 200.504C383.712 200.353 383.49 200.277 383.195 200.277C382.938 200.277 382.721 200.342 382.547 200.473C382.372 200.603 382.285 200.76 382.285 200.945H381.559C381.559 200.734 381.633 200.531 381.781 200.336C381.932 200.138 382.135 199.982 382.391 199.867C382.648 199.753 382.931 199.695 383.238 199.695C383.725 199.695 384.107 199.818 384.383 200.062C384.659 200.305 384.802 200.639 384.812 201.066V203.012C384.812 203.4 384.862 203.708 384.961 203.938V204H384.203ZM383.004 203.449C383.23 203.449 383.445 203.391 383.648 203.273C383.852 203.156 383.999 203.004 384.09 202.816V201.949H383.523C382.638 201.949 382.195 202.208 382.195 202.727C382.195 202.953 382.271 203.13 382.422 203.258C382.573 203.385 382.767 203.449 383.004 203.449ZM386.73 204H386.008V198H386.73V204ZM393.129 202.516H390.746L390.211 204H389.438L391.609 198.312H392.266L394.441 204H393.672L393.129 202.516ZM390.973 201.898H392.906L391.938 199.238L390.973 201.898ZM396.789 203.488C397.047 203.488 397.272 203.41 397.465 203.254C397.658 203.098 397.764 202.902 397.785 202.668H398.469C398.456 202.91 398.372 203.141 398.219 203.359C398.065 203.578 397.859 203.753 397.602 203.883C397.346 204.013 397.076 204.078 396.789 204.078C396.214 204.078 395.755 203.887 395.414 203.504C395.076 203.118 394.906 202.592 394.906 201.926V201.805C394.906 201.393 394.982 201.027 395.133 200.707C395.284 200.387 395.5 200.138 395.781 199.961C396.065 199.784 396.4 199.695 396.785 199.695C397.259 199.695 397.652 199.837 397.965 200.121C398.28 200.405 398.448 200.773 398.469 201.227H397.785C397.764 200.953 397.66 200.729 397.473 200.555C397.288 200.378 397.059 200.289 396.785 200.289C396.418 200.289 396.133 200.422 395.93 200.688C395.729 200.951 395.629 201.332 395.629 201.832V201.969C395.629 202.456 395.729 202.831 395.93 203.094C396.13 203.357 396.417 203.488 396.789 203.488ZM400.977 203.488C401.234 203.488 401.46 203.41 401.652 203.254C401.845 203.098 401.952 202.902 401.973 202.668H402.656C402.643 202.91 402.56 203.141 402.406 203.359C402.253 203.578 402.047 203.753 401.789 203.883C401.534 204.013 401.263 204.078 400.977 204.078C400.401 204.078 399.943 203.887 399.602 203.504C399.263 203.118 399.094 202.592 399.094 201.926V201.805C399.094 201.393 399.169 201.027 399.32 200.707C399.471 200.387 399.688 200.138 399.969 199.961C400.253 199.784 400.587 199.695 400.973 199.695C401.447 199.695 401.84 199.837 402.152 200.121C402.467 200.405 402.635 200.773 402.656 201.227H401.973C401.952 200.953 401.848 200.729 401.66 200.555C401.475 200.378 401.246 200.289 400.973 200.289C400.605 200.289 400.32 200.422 400.117 200.688C399.917 200.951 399.816 201.332 399.816 201.832V201.969C399.816 202.456 399.917 202.831 400.117 203.094C400.318 203.357 400.604 203.488 400.977 203.488ZM403.277 201.848C403.277 201.434 403.358 201.061 403.52 200.73C403.684 200.4 403.91 200.145 404.199 199.965C404.491 199.785 404.823 199.695 405.195 199.695C405.771 199.695 406.236 199.895 406.59 200.293C406.947 200.691 407.125 201.221 407.125 201.883V201.934C407.125 202.345 407.046 202.715 406.887 203.043C406.73 203.368 406.505 203.622 406.211 203.805C405.919 203.987 405.583 204.078 405.203 204.078C404.63 204.078 404.165 203.879 403.809 203.48C403.454 203.082 403.277 202.555 403.277 201.898V201.848ZM404.004 201.934C404.004 202.402 404.112 202.779 404.328 203.062C404.547 203.346 404.839 203.488 405.203 203.488C405.57 203.488 405.862 203.345 406.078 203.059C406.294 202.77 406.402 202.366 406.402 201.848C406.402 201.384 406.292 201.009 406.07 200.723C405.852 200.434 405.56 200.289 405.195 200.289C404.839 200.289 404.551 200.431 404.332 200.715C404.113 200.999 404.004 201.405 404.004 201.934ZM410.641 203.582C410.359 203.913 409.947 204.078 409.402 204.078C408.952 204.078 408.608 203.948 408.371 203.688C408.137 203.424 408.018 203.036 408.016 202.523V199.773H408.738V202.504C408.738 203.145 408.999 203.465 409.52 203.465C410.072 203.465 410.439 203.259 410.621 202.848V199.773H411.344V204H410.656L410.641 203.582ZM413.129 199.773L413.152 200.305C413.475 199.898 413.897 199.695 414.418 199.695C415.311 199.695 415.762 200.199 415.77 201.207V204H415.047V201.203C415.044 200.898 414.974 200.673 414.836 200.527C414.701 200.382 414.488 200.309 414.199 200.309C413.965 200.309 413.759 200.371 413.582 200.496C413.405 200.621 413.267 200.785 413.168 200.988V204H412.445V199.773H413.129ZM417.84 198.75V199.773H418.629V200.332H417.84V202.953C417.84 203.122 417.875 203.25 417.945 203.336C418.016 203.419 418.135 203.461 418.305 203.461C418.388 203.461 418.503 203.445 418.648 203.414V204C418.458 204.052 418.273 204.078 418.094 204.078C417.771 204.078 417.527 203.98 417.363 203.785C417.199 203.59 417.117 203.312 417.117 202.953V200.332H416.348V199.773H417.117V198.75H417.84Z" fill="white"/>
<path d="M356.66 228V222.312H358.266C358.76 222.312 359.198 222.422 359.578 222.641C359.958 222.859 360.251 223.171 360.457 223.574C360.665 223.978 360.771 224.441 360.773 224.965V225.328C360.773 225.865 360.669 226.335 360.461 226.738C360.255 227.142 359.96 227.452 359.574 227.668C359.191 227.884 358.745 227.995 358.234 228H356.66ZM357.41 222.93V227.387H358.199C358.777 227.387 359.227 227.207 359.547 226.848C359.87 226.488 360.031 225.977 360.031 225.312V224.98C360.031 224.335 359.879 223.833 359.574 223.477C359.272 223.117 358.842 222.935 358.285 222.93H357.41ZM363.551 228.078C362.978 228.078 362.512 227.891 362.152 227.516C361.793 227.138 361.613 226.634 361.613 226.004V225.871C361.613 225.452 361.693 225.078 361.852 224.75C362.013 224.419 362.237 224.161 362.523 223.977C362.812 223.789 363.125 223.695 363.461 223.695C364.01 223.695 364.438 223.876 364.742 224.238C365.047 224.6 365.199 225.118 365.199 225.793V226.094H362.336C362.346 226.51 362.467 226.848 362.699 227.105C362.934 227.361 363.23 227.488 363.59 227.488C363.845 227.488 364.061 227.436 364.238 227.332C364.415 227.228 364.57 227.09 364.703 226.918L365.145 227.262C364.79 227.806 364.259 228.078 363.551 228.078ZM363.461 224.289C363.169 224.289 362.924 224.396 362.727 224.609C362.529 224.82 362.406 225.117 362.359 225.5H364.477V225.445C364.456 225.078 364.357 224.794 364.18 224.594C364.003 224.391 363.763 224.289 363.461 224.289ZM367.379 227.02L368.426 223.773H369.164L367.648 228H367.098L365.566 223.773H366.305L367.379 227.02ZM370.645 228H369.922V223.773H370.645V228ZM369.863 222.652C369.863 222.535 369.898 222.436 369.969 222.355C370.042 222.275 370.148 222.234 370.289 222.234C370.43 222.234 370.536 222.275 370.609 222.355C370.682 222.436 370.719 222.535 370.719 222.652C370.719 222.77 370.682 222.867 370.609 222.945C370.536 223.023 370.43 223.062 370.289 223.062C370.148 223.062 370.042 223.023 369.969 222.945C369.898 222.867 369.863 222.77 369.863 222.652ZM373.5 227.488C373.758 227.488 373.983 227.41 374.176 227.254C374.368 227.098 374.475 226.902 374.496 226.668H375.18C375.167 226.91 375.083 227.141 374.93 227.359C374.776 227.578 374.57 227.753 374.312 227.883C374.057 228.013 373.786 228.078 373.5 228.078C372.924 228.078 372.466 227.887 372.125 227.504C371.786 227.118 371.617 226.592 371.617 225.926V225.805C371.617 225.393 371.693 225.027 371.844 224.707C371.995 224.387 372.211 224.138 372.492 223.961C372.776 223.784 373.111 223.695 373.496 223.695C373.97 223.695 374.363 223.837 374.676 224.121C374.991 224.405 375.159 224.773 375.18 225.227H374.496C374.475 224.953 374.371 224.729 374.184 224.555C373.999 224.378 373.77 224.289 373.496 224.289C373.129 224.289 372.844 224.422 372.641 224.688C372.44 224.951 372.34 225.332 372.34 225.832V225.969C372.34 226.456 372.44 226.831 372.641 227.094C372.841 227.357 373.128 227.488 373.5 227.488ZM377.746 228.078C377.173 228.078 376.707 227.891 376.348 227.516C375.988 227.138 375.809 226.634 375.809 226.004V225.871C375.809 225.452 375.888 225.078 376.047 224.75C376.208 224.419 376.432 224.161 376.719 223.977C377.008 223.789 377.32 223.695 377.656 223.695C378.206 223.695 378.633 223.876 378.938 224.238C379.242 224.6 379.395 225.118 379.395 225.793V226.094H376.531C376.542 226.51 376.663 226.848 376.895 227.105C377.129 227.361 377.426 227.488 377.785 227.488C378.04 227.488 378.257 227.436 378.434 227.332C378.611 227.228 378.766 227.09 378.898 226.918L379.34 227.262C378.986 227.806 378.454 228.078 377.746 228.078ZM377.656 224.289C377.365 224.289 377.12 224.396 376.922 224.609C376.724 224.82 376.602 225.117 376.555 225.5H378.672V225.445C378.651 225.078 378.552 224.794 378.375 224.594C378.198 224.391 377.958 224.289 377.656 224.289ZM386.516 226.195C386.445 226.797 386.223 227.262 385.848 227.59C385.475 227.915 384.979 228.078 384.359 228.078C383.688 228.078 383.148 227.837 382.742 227.355C382.339 226.874 382.137 226.229 382.137 225.422V224.875C382.137 224.346 382.23 223.882 382.418 223.48C382.608 223.079 382.876 222.772 383.223 222.559C383.569 222.342 383.97 222.234 384.426 222.234C385.03 222.234 385.514 222.404 385.879 222.742C386.243 223.078 386.456 223.544 386.516 224.141H385.762C385.697 223.688 385.555 223.359 385.336 223.156C385.12 222.953 384.816 222.852 384.426 222.852C383.947 222.852 383.57 223.029 383.297 223.383C383.026 223.737 382.891 224.241 382.891 224.895V225.445C382.891 226.062 383.02 226.553 383.277 226.918C383.535 227.283 383.896 227.465 384.359 227.465C384.776 227.465 385.095 227.371 385.316 227.184C385.54 226.993 385.689 226.664 385.762 226.195H386.516ZM387.238 225.848C387.238 225.434 387.319 225.061 387.48 224.73C387.645 224.4 387.871 224.145 388.16 223.965C388.452 223.785 388.784 223.695 389.156 223.695C389.732 223.695 390.197 223.895 390.551 224.293C390.908 224.691 391.086 225.221 391.086 225.883V225.934C391.086 226.345 391.007 226.715 390.848 227.043C390.691 227.368 390.466 227.622 390.172 227.805C389.88 227.987 389.544 228.078 389.164 228.078C388.591 228.078 388.126 227.879 387.77 227.48C387.415 227.082 387.238 226.555 387.238 225.898V225.848ZM387.965 225.934C387.965 226.402 388.073 226.779 388.289 227.062C388.508 227.346 388.799 227.488 389.164 227.488C389.531 227.488 389.823 227.345 390.039 227.059C390.255 226.77 390.363 226.366 390.363 225.848C390.363 225.384 390.253 225.009 390.031 224.723C389.812 224.434 389.521 224.289 389.156 224.289C388.799 224.289 388.512 224.431 388.293 224.715C388.074 224.999 387.965 225.405 387.965 225.934ZM392.676 223.773L392.699 224.305C393.022 223.898 393.444 223.695 393.965 223.695C394.858 223.695 395.309 224.199 395.316 225.207V228H394.594V225.203C394.591 224.898 394.521 224.673 394.383 224.527C394.247 224.382 394.035 224.309 393.746 224.309C393.512 224.309 393.306 224.371 393.129 224.496C392.952 224.621 392.814 224.785 392.715 224.988V228H391.992V223.773H392.676ZM397.09 223.773L397.113 224.305C397.436 223.898 397.858 223.695 398.379 223.695C399.272 223.695 399.723 224.199 399.73 225.207V228H399.008V225.203C399.005 224.898 398.935 224.673 398.797 224.527C398.661 224.382 398.449 224.309 398.16 224.309C397.926 224.309 397.72 224.371 397.543 224.496C397.366 224.621 397.228 224.785 397.129 224.988V228H396.406V223.773H397.09ZM402.574 228.078C402.001 228.078 401.535 227.891 401.176 227.516C400.816 227.138 400.637 226.634 400.637 226.004V225.871C400.637 225.452 400.716 225.078 400.875 224.75C401.036 224.419 401.26 224.161 401.547 223.977C401.836 223.789 402.148 223.695 402.484 223.695C403.034 223.695 403.461 223.876 403.766 224.238C404.07 224.6 404.223 225.118 404.223 225.793V226.094H401.359C401.37 226.51 401.491 226.848 401.723 227.105C401.957 227.361 402.254 227.488 402.613 227.488C402.868 227.488 403.085 227.436 403.262 227.332C403.439 227.228 403.594 227.09 403.727 226.918L404.168 227.262C403.814 227.806 403.283 228.078 402.574 228.078ZM402.484 224.289C402.193 224.289 401.948 224.396 401.75 224.609C401.552 224.82 401.43 225.117 401.383 225.5H403.5V225.445C403.479 225.078 403.38 224.794 403.203 224.594C403.026 224.391 402.786 224.289 402.484 224.289ZM406.758 227.488C407.016 227.488 407.241 227.41 407.434 227.254C407.626 227.098 407.733 226.902 407.754 226.668H408.438C408.424 226.91 408.341 227.141 408.188 227.359C408.034 227.578 407.828 227.753 407.57 227.883C407.315 228.013 407.044 228.078 406.758 228.078C406.182 228.078 405.724 227.887 405.383 227.504C405.044 227.118 404.875 226.592 404.875 225.926V225.805C404.875 225.393 404.951 225.027 405.102 224.707C405.253 224.387 405.469 224.138 405.75 223.961C406.034 223.784 406.368 223.695 406.754 223.695C407.228 223.695 407.621 223.837 407.934 224.121C408.249 224.405 408.417 224.773 408.438 225.227H407.754C407.733 224.953 407.629 224.729 407.441 224.555C407.257 224.378 407.027 224.289 406.754 224.289C406.387 224.289 406.102 224.422 405.898 224.688C405.698 224.951 405.598 225.332 405.598 225.832V225.969C405.598 226.456 405.698 226.831 405.898 227.094C406.099 227.357 406.385 227.488 406.758 227.488ZM410.23 222.75V223.773H411.02V224.332H410.23V226.953C410.23 227.122 410.266 227.25 410.336 227.336C410.406 227.419 410.526 227.461 410.695 227.461C410.779 227.461 410.893 227.445 411.039 227.414V228C410.849 228.052 410.664 228.078 410.484 228.078C410.161 228.078 409.918 227.98 409.754 227.785C409.59 227.59 409.508 227.312 409.508 226.953V224.332H408.738V223.773H409.508V222.75H410.23ZM412.652 228H411.93V223.773H412.652V228ZM411.871 222.652C411.871 222.535 411.906 222.436 411.977 222.355C412.049 222.275 412.156 222.234 412.297 222.234C412.438 222.234 412.544 222.275 412.617 222.355C412.69 222.436 412.727 222.535 412.727 222.652C412.727 222.77 412.69 222.867 412.617 222.945C412.544 223.023 412.438 223.062 412.297 223.062C412.156 223.062 412.049 223.023 411.977 222.945C411.906 222.867 411.871 222.77 411.871 222.652ZM415.207 227.02L416.254 223.773H416.992L415.477 228H414.926L413.395 223.773H414.133L415.207 227.02ZM418.473 228H417.75V223.773H418.473V228ZM417.691 222.652C417.691 222.535 417.727 222.436 417.797 222.355C417.87 222.275 417.977 222.234 418.117 222.234C418.258 222.234 418.365 222.275 418.438 222.355C418.51 222.436 418.547 222.535 418.547 222.652C418.547 222.77 418.51 222.867 418.438 222.945C418.365 223.023 418.258 223.062 418.117 223.062C417.977 223.062 417.87 223.023 417.797 222.945C417.727 222.867 417.691 222.77 417.691 222.652ZM420.613 222.75V223.773H421.402V224.332H420.613V226.953C420.613 227.122 420.648 227.25 420.719 227.336C420.789 227.419 420.909 227.461 421.078 227.461C421.161 227.461 421.276 227.445 421.422 227.414V228C421.232 228.052 421.047 228.078 420.867 228.078C420.544 228.078 420.301 227.98 420.137 227.785C419.973 227.59 419.891 227.312 419.891 226.953V224.332H419.121V223.773H419.891V222.75H420.613ZM423.633 226.941L424.617 223.773H425.391L423.691 228.652C423.428 229.355 423.01 229.707 422.438 229.707L422.301 229.695L422.031 229.645V229.059L422.227 229.074C422.471 229.074 422.661 229.025 422.797 228.926C422.935 228.827 423.048 228.646 423.137 228.383L423.297 227.953L421.789 223.773H422.578L423.633 226.941Z" fill="white"/>
<path d="M360.664 246.312V250.18C360.661 250.716 360.492 251.155 360.156 251.496C359.823 251.837 359.37 252.029 358.797 252.07L358.598 252.078C357.975 252.078 357.479 251.91 357.109 251.574C356.74 251.238 356.552 250.776 356.547 250.188V246.312H357.289V250.164C357.289 250.576 357.402 250.896 357.629 251.125C357.855 251.352 358.178 251.465 358.598 251.465C359.022 251.465 359.346 251.352 359.57 251.125C359.797 250.898 359.91 250.579 359.91 250.168V246.312H360.664ZM364.195 250.879C364.195 250.684 364.121 250.533 363.973 250.426C363.827 250.316 363.57 250.223 363.203 250.145C362.839 250.066 362.548 249.973 362.332 249.863C362.118 249.754 361.96 249.624 361.855 249.473C361.754 249.322 361.703 249.142 361.703 248.934C361.703 248.587 361.849 248.294 362.141 248.055C362.435 247.815 362.81 247.695 363.266 247.695C363.745 247.695 364.133 247.819 364.43 248.066C364.729 248.314 364.879 248.63 364.879 249.016H364.152C364.152 248.818 364.068 248.647 363.898 248.504C363.732 248.361 363.521 248.289 363.266 248.289C363.003 248.289 362.797 248.346 362.648 248.461C362.5 248.576 362.426 248.725 362.426 248.91C362.426 249.085 362.495 249.216 362.633 249.305C362.771 249.393 363.02 249.478 363.379 249.559C363.741 249.639 364.034 249.736 364.258 249.848C364.482 249.96 364.647 250.095 364.754 250.254C364.863 250.41 364.918 250.602 364.918 250.828C364.918 251.206 364.767 251.509 364.465 251.738C364.163 251.965 363.771 252.078 363.289 252.078C362.951 252.078 362.651 252.018 362.391 251.898C362.13 251.779 361.926 251.612 361.777 251.398C361.632 251.182 361.559 250.949 361.559 250.699H362.281C362.294 250.941 362.391 251.134 362.57 251.277C362.753 251.418 362.992 251.488 363.289 251.488C363.562 251.488 363.781 251.434 363.945 251.324C364.112 251.212 364.195 251.064 364.195 250.879ZM367.613 252.078C367.04 252.078 366.574 251.891 366.215 251.516C365.855 251.138 365.676 250.634 365.676 250.004V249.871C365.676 249.452 365.755 249.078 365.914 248.75C366.076 248.419 366.299 248.161 366.586 247.977C366.875 247.789 367.188 247.695 367.523 247.695C368.073 247.695 368.5 247.876 368.805 248.238C369.109 248.6 369.262 249.118 369.262 249.793V250.094H366.398C366.409 250.51 366.53 250.848 366.762 251.105C366.996 251.361 367.293 251.488 367.652 251.488C367.908 251.488 368.124 251.436 368.301 251.332C368.478 251.228 368.633 251.09 368.766 250.918L369.207 251.262C368.853 251.806 368.322 252.078 367.613 252.078ZM367.523 248.289C367.232 248.289 366.987 248.396 366.789 248.609C366.591 248.82 366.469 249.117 366.422 249.5H368.539V249.445C368.518 249.078 368.419 248.794 368.242 248.594C368.065 248.391 367.826 248.289 367.523 248.289ZM372.145 248.422C372.035 248.404 371.917 248.395 371.789 248.395C371.315 248.395 370.993 248.596 370.824 249V252H370.102V247.773H370.805L370.816 248.262C371.053 247.884 371.389 247.695 371.824 247.695C371.965 247.695 372.072 247.714 372.145 247.75V248.422ZM378.051 250.516H375.668L375.133 252H374.359L376.531 246.312H377.188L379.363 252H378.594L378.051 250.516ZM375.895 249.898H377.828L376.859 247.238L375.895 249.898ZM381.711 251.488C381.969 251.488 382.194 251.41 382.387 251.254C382.579 251.098 382.686 250.902 382.707 250.668H383.391C383.378 250.91 383.294 251.141 383.141 251.359C382.987 251.578 382.781 251.753 382.523 251.883C382.268 252.013 381.997 252.078 381.711 252.078C381.135 252.078 380.677 251.887 380.336 251.504C379.997 251.118 379.828 250.592 379.828 249.926V249.805C379.828 249.393 379.904 249.027 380.055 248.707C380.206 248.387 380.422 248.138 380.703 247.961C380.987 247.784 381.322 247.695 381.707 247.695C382.181 247.695 382.574 247.837 382.887 248.121C383.202 248.405 383.37 248.773 383.391 249.227H382.707C382.686 248.953 382.582 248.729 382.395 248.555C382.21 248.378 381.98 248.289 381.707 248.289C381.34 248.289 381.055 248.422 380.852 248.688C380.651 248.951 380.551 249.332 380.551 249.832V249.969C380.551 250.456 380.651 250.831 380.852 251.094C381.052 251.357 381.339 251.488 381.711 251.488ZM385.184 246.75V247.773H385.973V248.332H385.184V250.953C385.184 251.122 385.219 251.25 385.289 251.336C385.359 251.419 385.479 251.461 385.648 251.461C385.732 251.461 385.846 251.445 385.992 251.414V252C385.802 252.052 385.617 252.078 385.438 252.078C385.115 252.078 384.871 251.98 384.707 251.785C384.543 251.59 384.461 251.312 384.461 250.953V248.332H383.691V247.773H384.461V246.75H385.184ZM387.605 252H386.883V247.773H387.605V252ZM386.824 246.652C386.824 246.535 386.859 246.436 386.93 246.355C387.003 246.275 387.109 246.234 387.25 246.234C387.391 246.234 387.497 246.275 387.57 246.355C387.643 246.436 387.68 246.535 387.68 246.652C387.68 246.77 387.643 246.867 387.57 246.945C387.497 247.023 387.391 247.062 387.25 247.062C387.109 247.062 387.003 247.023 386.93 246.945C386.859 246.867 386.824 246.77 386.824 246.652ZM390.16 251.02L391.207 247.773H391.945L390.43 252H389.879L388.348 247.773H389.086L390.16 251.02ZM393.426 252H392.703V247.773H393.426V252ZM392.645 246.652C392.645 246.535 392.68 246.436 392.75 246.355C392.823 246.275 392.93 246.234 393.07 246.234C393.211 246.234 393.318 246.275 393.391 246.355C393.464 246.436 393.5 246.535 393.5 246.652C393.5 246.77 393.464 246.867 393.391 246.945C393.318 247.023 393.211 247.062 393.07 247.062C392.93 247.062 392.823 247.023 392.75 246.945C392.68 246.867 392.645 246.77 392.645 246.652ZM395.566 246.75V247.773H396.355V248.332H395.566V250.953C395.566 251.122 395.602 251.25 395.672 251.336C395.742 251.419 395.862 251.461 396.031 251.461C396.115 251.461 396.229 251.445 396.375 251.414V252C396.185 252.052 396 252.078 395.82 252.078C395.497 252.078 395.254 251.98 395.09 251.785C394.926 251.59 394.844 251.312 394.844 250.953V248.332H394.074V247.773H394.844V246.75H395.566ZM398.586 250.941L399.57 247.773H400.344L398.645 252.652C398.382 253.355 397.964 253.707 397.391 253.707L397.254 253.695L396.984 253.645V253.059L397.18 253.074C397.424 253.074 397.615 253.025 397.75 252.926C397.888 252.827 398.001 252.646 398.09 252.383L398.25 251.953L396.742 247.773H397.531L398.586 250.941ZM406.863 246.93H405.035V252H404.289V246.93H402.465V246.312H406.863V246.93ZM409.34 248.422C409.23 248.404 409.112 248.395 408.984 248.395C408.51 248.395 408.189 248.596 408.02 249V252H407.297V247.773H408L408.012 248.262C408.249 247.884 408.585 247.695 409.02 247.695C409.16 247.695 409.267 247.714 409.34 247.75V248.422ZM412.461 252C412.419 251.917 412.385 251.768 412.359 251.555C412.023 251.904 411.622 252.078 411.156 252.078C410.74 252.078 410.397 251.961 410.129 251.727C409.863 251.49 409.73 251.19 409.73 250.828C409.73 250.388 409.897 250.047 410.23 249.805C410.566 249.56 411.038 249.438 411.645 249.438H412.348V249.105C412.348 248.853 412.272 248.652 412.121 248.504C411.97 248.353 411.747 248.277 411.453 248.277C411.195 248.277 410.979 248.342 410.805 248.473C410.63 248.603 410.543 248.76 410.543 248.945H409.816C409.816 248.734 409.891 248.531 410.039 248.336C410.19 248.138 410.393 247.982 410.648 247.867C410.906 247.753 411.189 247.695 411.496 247.695C411.983 247.695 412.365 247.818 412.641 248.062C412.917 248.305 413.06 248.639 413.07 249.066V251.012C413.07 251.4 413.12 251.708 413.219 251.938V252H412.461ZM411.262 251.449C411.488 251.449 411.703 251.391 411.906 251.273C412.109 251.156 412.257 251.004 412.348 250.816V249.949H411.781C410.896 249.949 410.453 250.208 410.453 250.727C410.453 250.953 410.529 251.13 410.68 251.258C410.831 251.385 411.025 251.449 411.262 251.449ZM415.898 251.488C416.156 251.488 416.382 251.41 416.574 251.254C416.767 251.098 416.874 250.902 416.895 250.668H417.578C417.565 250.91 417.482 251.141 417.328 251.359C417.174 251.578 416.969 251.753 416.711 251.883C416.456 252.013 416.185 252.078 415.898 252.078C415.323 252.078 414.865 251.887 414.523 251.504C414.185 251.118 414.016 250.592 414.016 249.926V249.805C414.016 249.393 414.091 249.027 414.242 248.707C414.393 248.387 414.609 248.138 414.891 247.961C415.174 247.784 415.509 247.695 415.895 247.695C416.368 247.695 416.762 247.837 417.074 248.121C417.389 248.405 417.557 248.773 417.578 249.227H416.895C416.874 248.953 416.77 248.729 416.582 248.555C416.397 248.378 416.168 248.289 415.895 248.289C415.527 248.289 415.242 248.422 415.039 248.688C414.839 248.951 414.738 249.332 414.738 249.832V249.969C414.738 250.456 414.839 250.831 415.039 251.094C415.24 251.357 415.526 251.488 415.898 251.488ZM419.57 250.043L419.117 250.516V252H418.395V246H419.117V249.629L419.504 249.164L420.82 247.773H421.699L420.055 249.539L421.891 252H421.043L419.57 250.043ZM423.23 252H422.508V247.773H423.23V252ZM422.449 246.652C422.449 246.535 422.484 246.436 422.555 246.355C422.628 246.275 422.734 246.234 422.875 246.234C423.016 246.234 423.122 246.275 423.195 246.355C423.268 246.436 423.305 246.535 423.305 246.652C423.305 246.77 423.268 246.867 423.195 246.945C423.122 247.023 423.016 247.062 422.875 247.062C422.734 247.062 422.628 247.023 422.555 246.945C422.484 246.867 422.449 246.77 422.449 246.652ZM425.074 247.773L425.098 248.305C425.421 247.898 425.842 247.695 426.363 247.695C427.257 247.695 427.707 248.199 427.715 249.207V252H426.992V249.203C426.99 248.898 426.919 248.673 426.781 248.527C426.646 248.382 426.434 248.309 426.145 248.309C425.91 248.309 425.704 248.371 425.527 248.496C425.35 248.621 425.212 248.785 425.113 248.988V252H424.391V247.773H425.074ZM428.633 249.852C428.633 249.193 428.785 248.669 429.09 248.281C429.395 247.891 429.798 247.695 430.301 247.695C430.816 247.695 431.219 247.878 431.508 248.242L431.543 247.773H432.203V251.898C432.203 252.445 432.04 252.876 431.715 253.191C431.392 253.507 430.957 253.664 430.41 253.664C430.105 253.664 429.807 253.599 429.516 253.469C429.224 253.339 429.001 253.16 428.848 252.934L429.223 252.5C429.533 252.883 429.911 253.074 430.359 253.074C430.711 253.074 430.984 252.975 431.18 252.777C431.378 252.579 431.477 252.301 431.477 251.941V251.578C431.188 251.911 430.793 252.078 430.293 252.078C429.798 252.078 429.397 251.879 429.09 251.48C428.785 251.082 428.633 250.539 428.633 249.852ZM429.359 249.934C429.359 250.41 429.457 250.785 429.652 251.059C429.848 251.329 430.121 251.465 430.473 251.465C430.928 251.465 431.263 251.258 431.477 250.844V248.914C431.255 248.51 430.923 248.309 430.48 248.309C430.129 248.309 429.854 248.445 429.656 248.719C429.458 248.992 429.359 249.397 429.359 249.934Z" fill="white"/>
<path d="M360.859 275.254C360.667 275.53 360.397 275.737 360.051 275.875C359.707 276.01 359.306 276.078 358.848 276.078C358.384 276.078 357.973 275.97 357.613 275.754C357.254 275.535 356.975 275.225 356.777 274.824C356.582 274.423 356.482 273.958 356.477 273.43V272.934C356.477 272.077 356.676 271.413 357.074 270.941C357.475 270.47 358.038 270.234 358.762 270.234C359.355 270.234 359.833 270.387 360.195 270.691C360.557 270.993 360.779 271.423 360.859 271.98H360.109C359.969 271.228 359.521 270.852 358.766 270.852C358.263 270.852 357.882 271.029 357.621 271.383C357.363 271.734 357.233 272.245 357.23 272.914V273.379C357.23 274.017 357.376 274.525 357.668 274.902C357.96 275.277 358.354 275.465 358.852 275.465C359.133 275.465 359.379 275.434 359.59 275.371C359.801 275.309 359.975 275.203 360.113 275.055V273.777H358.797V273.168H360.859V275.254ZM363.754 276.078C363.181 276.078 362.715 275.891 362.355 275.516C361.996 275.138 361.816 274.634 361.816 274.004V273.871C361.816 273.452 361.896 273.078 362.055 272.75C362.216 272.419 362.44 272.161 362.727 271.977C363.016 271.789 363.328 271.695 363.664 271.695C364.214 271.695 364.641 271.876 364.945 272.238C365.25 272.6 365.402 273.118 365.402 273.793V274.094H362.539C362.549 274.51 362.671 274.848 362.902 275.105C363.137 275.361 363.434 275.488 363.793 275.488C364.048 275.488 364.264 275.436 364.441 275.332C364.618 275.228 364.773 275.09 364.906 274.918L365.348 275.262C364.993 275.806 364.462 276.078 363.754 276.078ZM363.664 272.289C363.372 272.289 363.128 272.396 362.93 272.609C362.732 272.82 362.609 273.117 362.562 273.5H364.68V273.445C364.659 273.078 364.56 272.794 364.383 272.594C364.206 272.391 363.966 272.289 363.664 272.289ZM366.051 273.848C366.051 273.434 366.132 273.061 366.293 272.73C366.457 272.4 366.684 272.145 366.973 271.965C367.264 271.785 367.596 271.695 367.969 271.695C368.544 271.695 369.009 271.895 369.363 272.293C369.72 272.691 369.898 273.221 369.898 273.883V273.934C369.898 274.345 369.819 274.715 369.66 275.043C369.504 275.368 369.279 275.622 368.984 275.805C368.693 275.987 368.357 276.078 367.977 276.078C367.404 276.078 366.939 275.879 366.582 275.48C366.228 275.082 366.051 274.555 366.051 273.898V273.848ZM366.777 273.934C366.777 274.402 366.885 274.779 367.102 275.062C367.32 275.346 367.612 275.488 367.977 275.488C368.344 275.488 368.635 275.345 368.852 275.059C369.068 274.77 369.176 274.366 369.176 273.848C369.176 273.384 369.065 273.009 368.844 272.723C368.625 272.434 368.333 272.289 367.969 272.289C367.612 272.289 367.324 272.431 367.105 272.715C366.887 272.999 366.777 273.405 366.777 273.934ZM371.59 276H370.867V270H371.59V276ZM372.559 273.848C372.559 273.434 372.639 273.061 372.801 272.73C372.965 272.4 373.191 272.145 373.48 271.965C373.772 271.785 374.104 271.695 374.477 271.695C375.052 271.695 375.517 271.895 375.871 272.293C376.228 272.691 376.406 273.221 376.406 273.883V273.934C376.406 274.345 376.327 274.715 376.168 275.043C376.012 275.368 375.786 275.622 375.492 275.805C375.201 275.987 374.865 276.078 374.484 276.078C373.911 276.078 373.447 275.879 373.09 275.48C372.736 275.082 372.559 274.555 372.559 273.898V273.848ZM373.285 273.934C373.285 274.402 373.393 274.779 373.609 275.062C373.828 275.346 374.12 275.488 374.484 275.488C374.852 275.488 375.143 275.345 375.359 275.059C375.576 274.77 375.684 274.366 375.684 273.848C375.684 273.384 375.573 273.009 375.352 272.723C375.133 272.434 374.841 272.289 374.477 272.289C374.12 272.289 373.832 272.431 373.613 272.715C373.395 272.999 373.285 273.405 373.285 273.934ZM379.008 275.488C379.266 275.488 379.491 275.41 379.684 275.254C379.876 275.098 379.983 274.902 380.004 274.668H380.688C380.674 274.91 380.591 275.141 380.438 275.359C380.284 275.578 380.078 275.753 379.82 275.883C379.565 276.013 379.294 276.078 379.008 276.078C378.432 276.078 377.974 275.887 377.633 275.504C377.294 275.118 377.125 274.592 377.125 273.926V273.805C377.125 273.393 377.201 273.027 377.352 272.707C377.503 272.387 377.719 272.138 378 271.961C378.284 271.784 378.618 271.695 379.004 271.695C379.478 271.695 379.871 271.837 380.184 272.121C380.499 272.405 380.667 272.773 380.688 273.227H380.004C379.983 272.953 379.879 272.729 379.691 272.555C379.507 272.378 379.277 272.289 379.004 272.289C378.637 272.289 378.352 272.422 378.148 272.688C377.948 272.951 377.848 273.332 377.848 273.832V273.969C377.848 274.456 377.948 274.831 378.148 275.094C378.349 275.357 378.635 275.488 379.008 275.488ZM384.109 276C384.068 275.917 384.034 275.768 384.008 275.555C383.672 275.904 383.271 276.078 382.805 276.078C382.388 276.078 382.046 275.961 381.777 275.727C381.512 275.49 381.379 275.19 381.379 274.828C381.379 274.388 381.546 274.047 381.879 273.805C382.215 273.56 382.686 273.438 383.293 273.438H383.996V273.105C383.996 272.853 383.921 272.652 383.77 272.504C383.618 272.353 383.396 272.277 383.102 272.277C382.844 272.277 382.628 272.342 382.453 272.473C382.279 272.603 382.191 272.76 382.191 272.945H381.465C381.465 272.734 381.539 272.531 381.688 272.336C381.839 272.138 382.042 271.982 382.297 271.867C382.555 271.753 382.837 271.695 383.145 271.695C383.632 271.695 384.013 271.818 384.289 272.062C384.565 272.305 384.708 272.639 384.719 273.066V275.012C384.719 275.4 384.768 275.708 384.867 275.938V276H384.109ZM382.91 275.449C383.137 275.449 383.352 275.391 383.555 275.273C383.758 275.156 383.905 275.004 383.996 274.816V273.949H383.43C382.544 273.949 382.102 274.208 382.102 274.727C382.102 274.953 382.177 275.13 382.328 275.258C382.479 275.385 382.673 275.449 382.91 275.449ZM386.832 270.75V271.773H387.621V272.332H386.832V274.953C386.832 275.122 386.867 275.25 386.938 275.336C387.008 275.419 387.128 275.461 387.297 275.461C387.38 275.461 387.495 275.445 387.641 275.414V276C387.451 276.052 387.266 276.078 387.086 276.078C386.763 276.078 386.52 275.98 386.355 275.785C386.191 275.59 386.109 275.312 386.109 274.953V272.332H385.34V271.773H386.109V270.75H386.832ZM389.254 276H388.531V271.773H389.254V276ZM388.473 270.652C388.473 270.535 388.508 270.436 388.578 270.355C388.651 270.275 388.758 270.234 388.898 270.234C389.039 270.234 389.146 270.275 389.219 270.355C389.292 270.436 389.328 270.535 389.328 270.652C389.328 270.77 389.292 270.867 389.219 270.945C389.146 271.023 389.039 271.062 388.898 271.062C388.758 271.062 388.651 271.023 388.578 270.945C388.508 270.867 388.473 270.77 388.473 270.652ZM390.223 273.848C390.223 273.434 390.303 273.061 390.465 272.73C390.629 272.4 390.855 272.145 391.145 271.965C391.436 271.785 391.768 271.695 392.141 271.695C392.716 271.695 393.181 271.895 393.535 272.293C393.892 272.691 394.07 273.221 394.07 273.883V273.934C394.07 274.345 393.991 274.715 393.832 275.043C393.676 275.368 393.451 275.622 393.156 275.805C392.865 275.987 392.529 276.078 392.148 276.078C391.576 276.078 391.111 275.879 390.754 275.48C390.4 275.082 390.223 274.555 390.223 273.898V273.848ZM390.949 273.934C390.949 274.402 391.057 274.779 391.273 275.062C391.492 275.346 391.784 275.488 392.148 275.488C392.516 275.488 392.807 275.345 393.023 275.059C393.24 274.77 393.348 274.366 393.348 273.848C393.348 273.384 393.237 273.009 393.016 272.723C392.797 272.434 392.505 272.289 392.141 272.289C391.784 272.289 391.496 272.431 391.277 272.715C391.059 272.999 390.949 273.405 390.949 273.934ZM395.66 271.773L395.684 272.305C396.007 271.898 396.428 271.695 396.949 271.695C397.842 271.695 398.293 272.199 398.301 273.207V276H397.578V273.203C397.576 272.898 397.505 272.673 397.367 272.527C397.232 272.382 397.02 272.309 396.73 272.309C396.496 272.309 396.29 272.371 396.113 272.496C395.936 272.621 395.798 272.785 395.699 272.988V276H394.977V271.773H395.66Z" fill="white"/>
<path d="M360.59 294.93H358.762V300H358.016V294.93H356.191V294.312H360.59V294.93ZM363.484 300C363.443 299.917 363.409 299.768 363.383 299.555C363.047 299.904 362.646 300.078 362.18 300.078C361.763 300.078 361.421 299.961 361.152 299.727C360.887 299.49 360.754 299.19 360.754 298.828C360.754 298.388 360.921 298.047 361.254 297.805C361.59 297.56 362.061 297.438 362.668 297.438H363.371V297.105C363.371 296.853 363.296 296.652 363.145 296.504C362.993 296.353 362.771 296.277 362.477 296.277C362.219 296.277 362.003 296.342 361.828 296.473C361.654 296.603 361.566 296.76 361.566 296.945H360.84C360.84 296.734 360.914 296.531 361.062 296.336C361.214 296.138 361.417 295.982 361.672 295.867C361.93 295.753 362.212 295.695 362.52 295.695C363.007 295.695 363.388 295.818 363.664 296.062C363.94 296.305 364.083 296.639 364.094 297.066V299.012C364.094 299.4 364.143 299.708 364.242 299.938V300H363.484ZM362.285 299.449C362.512 299.449 362.727 299.391 362.93 299.273C363.133 299.156 363.28 299.004 363.371 298.816V297.949H362.805C361.919 297.949 361.477 298.208 361.477 298.727C361.477 298.953 361.552 299.13 361.703 299.258C361.854 299.385 362.048 299.449 362.285 299.449ZM367.27 296.422C367.16 296.404 367.042 296.395 366.914 296.395C366.44 296.395 366.118 296.596 365.949 297V300H365.227V295.773H365.93L365.941 296.262C366.178 295.884 366.514 295.695 366.949 295.695C367.09 295.695 367.197 295.714 367.27 295.75V296.422ZM367.688 297.852C367.688 297.193 367.84 296.669 368.145 296.281C368.449 295.891 368.853 295.695 369.355 295.695C369.871 295.695 370.273 295.878 370.562 296.242L370.598 295.773H371.258V299.898C371.258 300.445 371.095 300.876 370.77 301.191C370.447 301.507 370.012 301.664 369.465 301.664C369.16 301.664 368.862 301.599 368.57 301.469C368.279 301.339 368.056 301.16 367.902 300.934L368.277 300.5C368.587 300.883 368.966 301.074 369.414 301.074C369.766 301.074 370.039 300.975 370.234 300.777C370.432 300.579 370.531 300.301 370.531 299.941V299.578C370.242 299.911 369.848 300.078 369.348 300.078C368.853 300.078 368.452 299.879 368.145 299.48C367.84 299.082 367.688 298.539 367.688 297.852ZM368.414 297.934C368.414 298.41 368.512 298.785 368.707 299.059C368.902 299.329 369.176 299.465 369.527 299.465C369.983 299.465 370.318 299.258 370.531 298.844V296.914C370.31 296.51 369.978 296.309 369.535 296.309C369.184 296.309 368.909 296.445 368.711 296.719C368.513 296.992 368.414 297.397 368.414 297.934ZM374.105 300.078C373.533 300.078 373.066 299.891 372.707 299.516C372.348 299.138 372.168 298.634 372.168 298.004V297.871C372.168 297.452 372.247 297.078 372.406 296.75C372.568 296.419 372.792 296.161 373.078 295.977C373.367 295.789 373.68 295.695 374.016 295.695C374.565 295.695 374.992 295.876 375.297 296.238C375.602 296.6 375.754 297.118 375.754 297.793V298.094H372.891C372.901 298.51 373.022 298.848 373.254 299.105C373.488 299.361 373.785 299.488 374.145 299.488C374.4 299.488 374.616 299.436 374.793 299.332C374.97 299.228 375.125 299.09 375.258 298.918L375.699 299.262C375.345 299.806 374.814 300.078 374.105 300.078ZM374.016 296.289C373.724 296.289 373.479 296.396 373.281 296.609C373.083 296.82 372.961 297.117 372.914 297.5H375.031V297.445C375.01 297.078 374.911 296.794 374.734 296.594C374.557 296.391 374.318 296.289 374.016 296.289ZM377.574 294.75V295.773H378.363V296.332H377.574V298.953C377.574 299.122 377.609 299.25 377.68 299.336C377.75 299.419 377.87 299.461 378.039 299.461C378.122 299.461 378.237 299.445 378.383 299.414V300C378.193 300.052 378.008 300.078 377.828 300.078C377.505 300.078 377.262 299.98 377.098 299.785C376.934 299.59 376.852 299.312 376.852 298.953V296.332H376.082V295.773H376.852V294.75H377.574ZM383.656 298.879C383.656 298.684 383.582 298.533 383.434 298.426C383.288 298.316 383.031 298.223 382.664 298.145C382.299 298.066 382.009 297.973 381.793 297.863C381.579 297.754 381.421 297.624 381.316 297.473C381.215 297.322 381.164 297.142 381.164 296.934C381.164 296.587 381.31 296.294 381.602 296.055C381.896 295.815 382.271 295.695 382.727 295.695C383.206 295.695 383.594 295.819 383.891 296.066C384.19 296.314 384.34 296.63 384.34 297.016H383.613C383.613 296.818 383.529 296.647 383.359 296.504C383.193 296.361 382.982 296.289 382.727 296.289C382.464 296.289 382.258 296.346 382.109 296.461C381.961 296.576 381.887 296.725 381.887 296.91C381.887 297.085 381.956 297.216 382.094 297.305C382.232 297.393 382.48 297.478 382.84 297.559C383.202 297.639 383.495 297.736 383.719 297.848C383.943 297.96 384.108 298.095 384.215 298.254C384.324 298.41 384.379 298.602 384.379 298.828C384.379 299.206 384.228 299.509 383.926 299.738C383.624 299.965 383.232 300.078 382.75 300.078C382.411 300.078 382.112 300.018 381.852 299.898C381.591 299.779 381.387 299.612 381.238 299.398C381.092 299.182 381.02 298.949 381.02 298.699H381.742C381.755 298.941 381.852 299.134 382.031 299.277C382.214 299.418 382.453 299.488 382.75 299.488C383.023 299.488 383.242 299.434 383.406 299.324C383.573 299.212 383.656 299.064 383.656 298.879ZM387.074 300.078C386.501 300.078 386.035 299.891 385.676 299.516C385.316 299.138 385.137 298.634 385.137 298.004V297.871C385.137 297.452 385.216 297.078 385.375 296.75C385.536 296.419 385.76 296.161 386.047 295.977C386.336 295.789 386.648 295.695 386.984 295.695C387.534 295.695 387.961 295.876 388.266 296.238C388.57 296.6 388.723 297.118 388.723 297.793V298.094H385.859C385.87 298.51 385.991 298.848 386.223 299.105C386.457 299.361 386.754 299.488 387.113 299.488C387.368 299.488 387.585 299.436 387.762 299.332C387.939 299.228 388.094 299.09 388.227 298.918L388.668 299.262C388.314 299.806 387.783 300.078 387.074 300.078ZM386.984 296.289C386.693 296.289 386.448 296.396 386.25 296.609C386.052 296.82 385.93 297.117 385.883 297.5H388V297.445C387.979 297.078 387.88 296.794 387.703 296.594C387.526 296.391 387.286 296.289 386.984 296.289ZM390.543 294.75V295.773H391.332V296.332H390.543V298.953C390.543 299.122 390.578 299.25 390.648 299.336C390.719 299.419 390.839 299.461 391.008 299.461C391.091 299.461 391.206 299.445 391.352 299.414V300C391.161 300.052 390.977 300.078 390.797 300.078C390.474 300.078 390.23 299.98 390.066 299.785C389.902 299.59 389.82 299.312 389.82 298.953V296.332H389.051V295.773H389.82V294.75H390.543ZM393.16 294.75V295.773H393.949V296.332H393.16V298.953C393.16 299.122 393.195 299.25 393.266 299.336C393.336 299.419 393.456 299.461 393.625 299.461C393.708 299.461 393.823 299.445 393.969 299.414V300C393.779 300.052 393.594 300.078 393.414 300.078C393.091 300.078 392.848 299.98 392.684 299.785C392.52 299.59 392.438 299.312 392.438 298.953V296.332H391.668V295.773H392.438V294.75H393.16ZM395.582 300H394.859V295.773H395.582V300ZM394.801 294.652C394.801 294.535 394.836 294.436 394.906 294.355C394.979 294.275 395.086 294.234 395.227 294.234C395.367 294.234 395.474 294.275 395.547 294.355C395.62 294.436 395.656 294.535 395.656 294.652C395.656 294.77 395.62 294.867 395.547 294.945C395.474 295.023 395.367 295.062 395.227 295.062C395.086 295.062 394.979 295.023 394.906 294.945C394.836 294.867 394.801 294.77 394.801 294.652ZM397.426 295.773L397.449 296.305C397.772 295.898 398.194 295.695 398.715 295.695C399.608 295.695 400.059 296.199 400.066 297.207V300H399.344V297.203C399.341 296.898 399.271 296.673 399.133 296.527C398.997 296.382 398.785 296.309 398.496 296.309C398.262 296.309 398.056 296.371 397.879 296.496C397.702 296.621 397.564 296.785 397.465 296.988V300H396.742V295.773H397.426ZM400.984 297.852C400.984 297.193 401.137 296.669 401.441 296.281C401.746 295.891 402.15 295.695 402.652 295.695C403.168 295.695 403.57 295.878 403.859 296.242L403.895 295.773H404.555V299.898C404.555 300.445 404.392 300.876 404.066 301.191C403.743 301.507 403.309 301.664 402.762 301.664C402.457 301.664 402.159 301.599 401.867 301.469C401.576 301.339 401.353 301.16 401.199 300.934L401.574 300.5C401.884 300.883 402.263 301.074 402.711 301.074C403.062 301.074 403.336 300.975 403.531 300.777C403.729 300.579 403.828 300.301 403.828 299.941V299.578C403.539 299.911 403.145 300.078 402.645 300.078C402.15 300.078 401.749 299.879 401.441 299.48C401.137 299.082 400.984 298.539 400.984 297.852ZM401.711 297.934C401.711 298.41 401.809 298.785 402.004 299.059C402.199 299.329 402.473 299.465 402.824 299.465C403.28 299.465 403.615 299.258 403.828 298.844V296.914C403.607 296.51 403.275 296.309 402.832 296.309C402.48 296.309 402.206 296.445 402.008 296.719C401.81 296.992 401.711 297.397 401.711 297.934Z" fill="white"/>
<path d="M357.887 323.207L357.996 323.957L358.156 323.281L359.281 319.312H359.914L361.012 323.281L361.168 323.969L361.289 323.203L362.172 319.312H362.926L361.547 325H360.863L359.691 320.855L359.602 320.422L359.512 320.855L358.297 325H357.613L356.238 319.312H356.988L357.887 323.207ZM363.332 322.848C363.332 322.434 363.413 322.061 363.574 321.73C363.738 321.4 363.965 321.145 364.254 320.965C364.546 320.785 364.878 320.695 365.25 320.695C365.826 320.695 366.29 320.895 366.645 321.293C367.001 321.691 367.18 322.221 367.18 322.883V322.934C367.18 323.345 367.1 323.715 366.941 324.043C366.785 324.368 366.56 324.622 366.266 324.805C365.974 324.987 365.638 325.078 365.258 325.078C364.685 325.078 364.22 324.879 363.863 324.48C363.509 324.082 363.332 323.555 363.332 322.898V322.848ZM364.059 322.934C364.059 323.402 364.167 323.779 364.383 324.062C364.602 324.346 364.893 324.488 365.258 324.488C365.625 324.488 365.917 324.345 366.133 324.059C366.349 323.77 366.457 323.366 366.457 322.848C366.457 322.384 366.346 322.009 366.125 321.723C365.906 321.434 365.615 321.289 365.25 321.289C364.893 321.289 364.605 321.431 364.387 321.715C364.168 321.999 364.059 322.405 364.059 322.934ZM370.129 321.422C370.02 321.404 369.901 321.395 369.773 321.395C369.299 321.395 368.978 321.596 368.809 322V325H368.086V320.773H368.789L368.801 321.262C369.038 320.884 369.374 320.695 369.809 320.695C369.949 320.695 370.056 320.714 370.129 320.75V321.422ZM371.977 323.043L371.523 323.516V325H370.801V319H371.523V322.629L371.91 322.164L373.227 320.773H374.105L372.461 322.539L374.297 325H373.449L371.977 323.043ZM374.66 322.848C374.66 322.434 374.741 322.061 374.902 321.73C375.066 321.4 375.293 321.145 375.582 320.965C375.874 320.785 376.206 320.695 376.578 320.695C377.154 320.695 377.618 320.895 377.973 321.293C378.329 321.691 378.508 322.221 378.508 322.883V322.934C378.508 323.345 378.428 323.715 378.27 324.043C378.113 324.368 377.888 324.622 377.594 324.805C377.302 324.987 376.966 325.078 376.586 325.078C376.013 325.078 375.548 324.879 375.191 324.48C374.837 324.082 374.66 323.555 374.66 322.898V322.848ZM375.387 322.934C375.387 323.402 375.495 323.779 375.711 324.062C375.93 324.346 376.221 324.488 376.586 324.488C376.953 324.488 377.245 324.345 377.461 324.059C377.677 323.77 377.785 323.366 377.785 322.848C377.785 322.384 377.674 322.009 377.453 321.723C377.234 321.434 376.943 321.289 376.578 321.289C376.221 321.289 375.934 321.431 375.715 321.715C375.496 321.999 375.387 322.405 375.387 322.934ZM382.023 324.582C381.742 324.913 381.329 325.078 380.785 325.078C380.335 325.078 379.991 324.948 379.754 324.688C379.52 324.424 379.401 324.036 379.398 323.523V320.773H380.121V323.504C380.121 324.145 380.382 324.465 380.902 324.465C381.454 324.465 381.822 324.259 382.004 323.848V320.773H382.727V325H382.039L382.023 324.582ZM384.809 319.75V320.773H385.598V321.332H384.809V323.953C384.809 324.122 384.844 324.25 384.914 324.336C384.984 324.419 385.104 324.461 385.273 324.461C385.357 324.461 385.471 324.445 385.617 324.414V325C385.427 325.052 385.242 325.078 385.062 325.078C384.74 325.078 384.496 324.98 384.332 324.785C384.168 324.59 384.086 324.312 384.086 323.953V321.332H383.316V320.773H384.086V319.75H384.809ZM388.906 323.879C388.906 323.684 388.832 323.533 388.684 323.426C388.538 323.316 388.281 323.223 387.914 323.145C387.549 323.066 387.259 322.973 387.043 322.863C386.829 322.754 386.671 322.624 386.566 322.473C386.465 322.322 386.414 322.142 386.414 321.934C386.414 321.587 386.56 321.294 386.852 321.055C387.146 320.815 387.521 320.695 387.977 320.695C388.456 320.695 388.844 320.819 389.141 321.066C389.44 321.314 389.59 321.63 389.59 322.016H388.863C388.863 321.818 388.779 321.647 388.609 321.504C388.443 321.361 388.232 321.289 387.977 321.289C387.714 321.289 387.508 321.346 387.359 321.461C387.211 321.576 387.137 321.725 387.137 321.91C387.137 322.085 387.206 322.216 387.344 322.305C387.482 322.393 387.73 322.478 388.09 322.559C388.452 322.639 388.745 322.736 388.969 322.848C389.193 322.96 389.358 323.095 389.465 323.254C389.574 323.41 389.629 323.602 389.629 323.828C389.629 324.206 389.478 324.509 389.176 324.738C388.874 324.965 388.482 325.078 388 325.078C387.661 325.078 387.362 325.018 387.102 324.898C386.841 324.779 386.637 324.612 386.488 324.398C386.342 324.182 386.27 323.949 386.27 323.699H386.992C387.005 323.941 387.102 324.134 387.281 324.277C387.464 324.418 387.703 324.488 388 324.488C388.273 324.488 388.492 324.434 388.656 324.324C388.823 324.212 388.906 324.064 388.906 323.879Z" fill="white"/>
<path d="M361.031 350H360.277L357.414 345.617V350H356.66V344.312H357.414L360.285 348.715V344.312H361.031V350ZM362.059 347.848C362.059 347.434 362.139 347.061 362.301 346.73C362.465 346.4 362.691 346.145 362.98 345.965C363.272 345.785 363.604 345.695 363.977 345.695C364.552 345.695 365.017 345.895 365.371 346.293C365.728 346.691 365.906 347.221 365.906 347.883V347.934C365.906 348.345 365.827 348.715 365.668 349.043C365.512 349.368 365.286 349.622 364.992 349.805C364.701 349.987 364.365 350.078 363.984 350.078C363.411 350.078 362.947 349.879 362.59 349.48C362.236 349.082 362.059 348.555 362.059 347.898V347.848ZM362.785 347.934C362.785 348.402 362.893 348.779 363.109 349.062C363.328 349.346 363.62 349.488 363.984 349.488C364.352 349.488 364.643 349.345 364.859 349.059C365.076 348.77 365.184 348.366 365.184 347.848C365.184 347.384 365.073 347.009 364.852 346.723C364.633 346.434 364.341 346.289 363.977 346.289C363.62 346.289 363.332 346.431 363.113 346.715C362.895 346.999 362.785 347.405 362.785 347.934ZM367.793 344.75V345.773H368.582V346.332H367.793V348.953C367.793 349.122 367.828 349.25 367.898 349.336C367.969 349.419 368.089 349.461 368.258 349.461C368.341 349.461 368.456 349.445 368.602 349.414V350C368.411 350.052 368.227 350.078 368.047 350.078C367.724 350.078 367.48 349.98 367.316 349.785C367.152 349.59 367.07 349.312 367.07 348.953V346.332H366.301V345.773H367.07V344.75H367.793ZM370.215 350H369.492V345.773H370.215V350ZM369.434 344.652C369.434 344.535 369.469 344.436 369.539 344.355C369.612 344.275 369.719 344.234 369.859 344.234C370 344.234 370.107 344.275 370.18 344.355C370.253 344.436 370.289 344.535 370.289 344.652C370.289 344.77 370.253 344.867 370.18 344.945C370.107 345.023 370 345.062 369.859 345.062C369.719 345.062 369.612 345.023 369.539 344.945C369.469 344.867 369.434 344.77 369.434 344.652ZM371.617 350V346.332H370.949V345.773H371.617V345.414C371.617 344.943 371.751 344.576 372.02 344.312C372.29 344.049 372.672 343.918 373.164 343.918C373.456 343.918 373.824 343.997 374.27 344.156L374.148 344.766C373.823 344.635 373.513 344.57 373.219 344.57C372.909 344.57 372.685 344.641 372.547 344.781C372.411 344.919 372.344 345.128 372.344 345.406V345.773H373.207V346.332H372.344V350H371.617ZM374.629 350H373.902V345.773H374.629V350ZM377.5 349.488C377.758 349.488 377.983 349.41 378.176 349.254C378.368 349.098 378.475 348.902 378.496 348.668H379.18C379.167 348.91 379.083 349.141 378.93 349.359C378.776 349.578 378.57 349.753 378.312 349.883C378.057 350.013 377.786 350.078 377.5 350.078C376.924 350.078 376.466 349.887 376.125 349.504C375.786 349.118 375.617 348.592 375.617 347.926V347.805C375.617 347.393 375.693 347.027 375.844 346.707C375.995 346.387 376.211 346.138 376.492 345.961C376.776 345.784 377.111 345.695 377.496 345.695C377.97 345.695 378.363 345.837 378.676 346.121C378.991 346.405 379.159 346.773 379.18 347.227H378.496C378.475 346.953 378.371 346.729 378.184 346.555C377.999 346.378 377.77 346.289 377.496 346.289C377.129 346.289 376.844 346.422 376.641 346.688C376.44 346.951 376.34 347.332 376.34 347.832V347.969C376.34 348.456 376.44 348.831 376.641 349.094C376.841 349.357 377.128 349.488 377.5 349.488ZM382.602 350C382.56 349.917 382.526 349.768 382.5 349.555C382.164 349.904 381.763 350.078 381.297 350.078C380.88 350.078 380.538 349.961 380.27 349.727C380.004 349.49 379.871 349.19 379.871 348.828C379.871 348.388 380.038 348.047 380.371 347.805C380.707 347.56 381.178 347.438 381.785 347.438H382.488V347.105C382.488 346.853 382.413 346.652 382.262 346.504C382.111 346.353 381.888 346.277 381.594 346.277C381.336 346.277 381.12 346.342 380.945 346.473C380.771 346.603 380.684 346.76 380.684 346.945H379.957C379.957 346.734 380.031 346.531 380.18 346.336C380.331 346.138 380.534 345.982 380.789 345.867C381.047 345.753 381.329 345.695 381.637 345.695C382.124 345.695 382.505 345.818 382.781 346.062C383.057 346.305 383.201 346.639 383.211 347.066V349.012C383.211 349.4 383.26 349.708 383.359 349.938V350H382.602ZM381.402 349.449C381.629 349.449 381.844 349.391 382.047 349.273C382.25 349.156 382.397 349.004 382.488 348.816V347.949H381.922C381.036 347.949 380.594 348.208 380.594 348.727C380.594 348.953 380.669 349.13 380.82 349.258C380.971 349.385 381.165 349.449 381.402 349.449ZM385.324 344.75V345.773H386.113V346.332H385.324V348.953C385.324 349.122 385.359 349.25 385.43 349.336C385.5 349.419 385.62 349.461 385.789 349.461C385.872 349.461 385.987 349.445 386.133 349.414V350C385.943 350.052 385.758 350.078 385.578 350.078C385.255 350.078 385.012 349.98 384.848 349.785C384.684 349.59 384.602 349.312 384.602 348.953V346.332H383.832V345.773H384.602V344.75H385.324ZM387.746 350H387.023V345.773H387.746V350ZM386.965 344.652C386.965 344.535 387 344.436 387.07 344.355C387.143 344.275 387.25 344.234 387.391 344.234C387.531 344.234 387.638 344.275 387.711 344.355C387.784 344.436 387.82 344.535 387.82 344.652C387.82 344.77 387.784 344.867 387.711 344.945C387.638 345.023 387.531 345.062 387.391 345.062C387.25 345.062 387.143 345.023 387.07 344.945C387 344.867 386.965 344.77 386.965 344.652ZM388.715 347.848C388.715 347.434 388.796 347.061 388.957 346.73C389.121 346.4 389.348 346.145 389.637 345.965C389.928 345.785 390.26 345.695 390.633 345.695C391.208 345.695 391.673 345.895 392.027 346.293C392.384 346.691 392.562 347.221 392.562 347.883V347.934C392.562 348.345 392.483 348.715 392.324 349.043C392.168 349.368 391.943 349.622 391.648 349.805C391.357 349.987 391.021 350.078 390.641 350.078C390.068 350.078 389.603 349.879 389.246 349.48C388.892 349.082 388.715 348.555 388.715 347.898V347.848ZM389.441 347.934C389.441 348.402 389.549 348.779 389.766 349.062C389.984 349.346 390.276 349.488 390.641 349.488C391.008 349.488 391.299 349.345 391.516 349.059C391.732 348.77 391.84 348.366 391.84 347.848C391.84 347.384 391.729 347.009 391.508 346.723C391.289 346.434 390.997 346.289 390.633 346.289C390.276 346.289 389.988 346.431 389.77 346.715C389.551 346.999 389.441 347.405 389.441 347.934ZM394.152 345.773L394.176 346.305C394.499 345.898 394.921 345.695 395.441 345.695C396.335 345.695 396.785 346.199 396.793 347.207V350H396.07V347.203C396.068 346.898 395.997 346.673 395.859 346.527C395.724 346.382 395.512 346.309 395.223 346.309C394.988 346.309 394.783 346.371 394.605 346.496C394.428 346.621 394.29 346.785 394.191 346.988V350H393.469V345.773H394.152Z" fill="white"/>
<path d="M445.688 224.009H459.349L481.369 250.899L466.214 249.495L445.688 224.009Z" fill="#FF6145"/>
<path d="M510.923 367.063C491.632 357.272 461.982 357.771 461.982 357.771L471.888 254.965L502.381 257.083C503.586 257.167 504.727 257.651 505.628 258.456L519.427 270.816L522.214 267.703L507.01 254.086C506.354 253.499 505.525 253.137 504.648 253.056L466.214 249.495L445.689 224.01L444.496 224.968C443.357 225.886 443.178 227.554 444.095 228.692L464.853 254.476L452.067 387.178V388.525C452.067 390.799 453.91 392.644 456.186 392.644H675.189V390.557V387.178C675.189 384.763 673.33 382.753 670.922 382.568L527.032 371.501C521.428 371.069 515.936 369.608 510.923 367.063" fill="#FF6A50"/>
</svg>
